<?xml version="1.0" standalone="no"?>
<!DOCTYPE svg PUBLIC "-//W3C//DTD SVG 1.1//EN" "http://www.w3.org/Graphics/SVG/1.1/DTD/svg11.dtd" >
<svg xmlns="http://www.w3.org/2000/svg">
<metadata></metadata>
<defs>
<font id="vagblack_dbregular" horiz-adv-x="1333" >
<font-face units-per-em="2048" ascent="1638" descent="-410" />
<missing-glyph horiz-adv-x="569" />
<glyph horiz-adv-x="0" />
<glyph unicode="&#xd;" horiz-adv-x="569" />
<glyph unicode=" "  horiz-adv-x="569" />
<glyph unicode="&#x09;" horiz-adv-x="569" />
<glyph unicode="&#xa0;" horiz-adv-x="569" />
<glyph unicode="!" horiz-adv-x="520" d="M63 143q0 72 52.5 124t124.5 52t125 -53t53 -125q0 -74 -53.5 -124t-131.5 -50q-68 0 -120 51q-49 53 -50 125zM82 573v699q0 70 43 124t115 54q70 0 114.5 -52t44.5 -126v-699q0 -72 -43 -127q-45 -51 -116 -51q-74 0 -117 51q-20 25 -30.5 55.5t-10.5 71.5z" />
<glyph unicode="&#x22;" horiz-adv-x="827" d="M70 952v336q0 57 36.5 100.5t98.5 43.5q57 0 95 -41t38 -103v-338q0 -57 -37 -99t-98 -42q-57 0 -95 41t-38 102zM451 952v336q0 57 36.5 100.5t100.5 43.5q57 0 95 -41t38 -103v-338q0 -61 -39 -101t-98 -40q-57 0 -95 41t-38 102z" />
<glyph unicode="#" horiz-adv-x="1138" d="M35 500q0 55 40 73.5t107 18.5h51l31 229l-35 -2q-68 0 -94 17q-41 25 -41 86q0 57 36 77.5t99 20.5l66 -2l18 242q31 170 136 170q35 0 64.5 -25t29.5 -59q0 -76 -12.5 -152t-16.5 -102.5t-14 -71.5h172l20 244q31 166 139 166q33 0 61 -26t28 -58q0 -76 -15 -160 l-26 -166h34q66 0 101 -19.5t35 -80.5q0 -59 -48 -84q-37 -14 -100 -15h-49l-31 -229l35 2q63 0 99 -19.5t36 -78.5q0 -61 -43 -86q-33 -16 -98 -17h-59l-21 -246q-31 -164 -143 -163q-33 0 -60.5 25.5t-27.5 60.5q0 45 2 70.5t12 84.5l31 168h-172l-19 -246 q-29 -164 -141 -163q-35 0 -61.5 24.5t-26.5 63.5q0 76 12 149.5t16.5 100t14.5 71.5l-37 -2q-68 0 -98 19q-37 25 -37 90zM442 592h170l31 229h-172z" />
<glyph unicode="$" horiz-adv-x="1136" d="M31 199q0 68 41 119t104 51q27 0 178 -58q76 -29 123 -28l-2 301q-203 61 -297 131q-143 106 -143 272q0 188 126 316.5t316 146.5l-2 66q0 39 12.5 62.5t51.5 23.5q37 0 52 -29t15 -72l-2 -49q125 0 221 -45q127 -59 127 -170q0 -57 -37.5 -106.5t-95.5 -49.5 q-41 0 -133 45q-43 23 -82 29l-2 -274q205 -55 311 -144q139 -115 140 -301q0 -193 -130 -332t-319 -139v-63q0 -41 -13 -62.5t-52 -21.5q-35 0 -52 24q-12 25 -12 66l2 57q-156 0 -276 45q-170 61 -170 189zM375 1028q0 -43 28.5 -71.5t71.5 -36.5v235q-43 -6 -71.5 -44 t-28.5 -83zM600 283q49 0 78 43t29 94t-29 82q-23 29 -78 47v-266z" />
<glyph unicode="%" horiz-adv-x="1406" d="M18 1126q0 131 92.5 227.5t227.5 96.5q129 0 218 -96.5t89 -227.5t-90 -227t-223 -96t-223.5 93t-90.5 230zM195 86q0 49 170 352q127 225 325 561l207 344q37 61 64.5 82t64.5 25q47 0 82 -32t35 -85q0 -55 -168 -360q-61 -111 -134 -236t-190 -317l-209 -346 q-6 -12 -24.5 -38t-24.5 -34q-35 -37 -76 -37q-53 0 -87.5 32t-34.5 89zM254 1122q0 -37 23.5 -61.5t60.5 -24.5q29 0 52.5 28t23.5 62q0 39 -22.5 65t-59.5 26q-35 0 -56.5 -28t-21.5 -67zM698 289q0 129 91.5 226t220.5 97q131 0 221 -96t90 -227q0 -127 -91 -226.5 t-220 -99.5q-131 0 -224 94q-88 98 -88 232zM928 285q0 -37 23.5 -61.5t60.5 -24.5q29 0 53 26q18 25 22 62q0 35 -23.5 62.5t-59.5 27.5q-37 0 -56.5 -26.5t-19.5 -65.5z" />
<glyph unicode="&#x26;" horiz-adv-x="1433" d="M23 391q0 154 90 258q66 78 227 168q-68 80 -92 123q-37 68 -37 147q0 160 123 259q113 88 280 88q174 0 289 -82q131 -94 131 -262q0 -104 -68.5 -198.5t-170.5 -152.5l194 -225q98 125 119 143q51 45 92 45q57 0 101.5 -40.5t44.5 -96.5q0 -43 -39 -100 q-23 -33 -140 -148l78 -86q49 -61 49 -104q0 -55 -49 -102q-47 -41 -108 -41q-43 0 -82 26q-16 12 -105 115q-104 -86 -219 -124t-256 -38q-186 0 -319 121t-133 307zM340 401q0 -82 53 -133q57 -47 144 -47q31 0 60.5 6t64.5 21q63 27 112 74l-260 290q-88 -51 -117 -84 q-57 -57 -57 -127zM502 1094q0 -27 10 -54q16 -31 45 -65l59 -53q70 33 101 59q49 43 49 104q0 57 -39 93t-100 36q-53 0 -89 -32.5t-36 -87.5z" />
<glyph unicode="'" horiz-adv-x="446" d="M70 952v336q0 57 36.5 100.5t98.5 43.5q57 0 95 -41t38 -103v-338q0 -57 -37 -99t-98 -42q-57 0 -95 41t-38 102z" />
<glyph unicode="(" horiz-adv-x="464" d="M53 557q0 242 58 508q84 385 231 385q55 0 98 -36t43 -93l-98 -426q-49 -215 -49 -352q0 -74 10 -149t37 -187l100 -416q0 -57 -41 -92t-100 -35q-100 0 -174 193q-25 72 -48.5 171t-41.5 222q-25 182 -25 307z" />
<glyph unicode=")" horiz-adv-x="579" d="M55 -207q0 43 74 332t74 448q0 135 -45 324l-103 424q0 57 39 93t101 36q102 0 176 -193q53 -143 88 -393q25 -184 24 -307q0 -147 -22 -307q-31 -244 -88 -393q-72 -195 -176 -195q-61 0 -101.5 34t-40.5 97z" />
<glyph unicode="*" horiz-adv-x="833" d="M47 926q0 37 35 65l123 60l-99 41q-59 31 -59 79q0 51 29.5 87t79.5 36q37 0 75 -26l68 -51l-12 65l-4 49q0 45 31.5 73t78.5 28q45 0 78 -27t33 -72q0 -39 -2 -57.5t-15 -61.5l70 52q41 27 74 26q41 0 78 -37q33 -39 32 -81q0 -55 -84 -95l-75 -30q90 -31 100 -39 q59 -31 59 -82q0 -47 -31.5 -85t-78.5 -38q-33 0 -74 26l-68 52l11 -60l4 -57q0 -49 -32 -74.5t-83 -25.5q-43 0 -74.5 27.5t-31.5 72.5l6 63l10 54l-68 -49q-49 -31 -77 -31q-45 0 -78 35q-29 39 -29 88z" />
<glyph unicode="+" horiz-adv-x="1224" d="M8 561q0 82 72 119q59 27 162 27h47t53 -5l94 -6l-6 99l-4 96q0 104 27 164q34 73 118 73q82 0 119 -71q6 -16 16.5 -57.5t10.5 -106.5v-37v-31q-4 -25 -4 -34l-6 -93l102 4l96 7q106 0 160 -27q72 -35 72 -119t-72 -121q-59 -27 -162 -26l-102 2l-92 8l4 -100l6 -95 q0 -51 -6 -91t-21 -70q-35 -74 -121 -74q-82 0 -118 72q-6 16 -16.5 57t-10.5 106l2 101l8 94l-98 -6l-92 -4q-109 0 -164 26q-74 35 -74 119z" />
<glyph unicode="," horiz-adv-x="630" d="M49 -166l6 45l25 53l162 291q25 43 61 68q10 8 27 14q26 12 55 12q66 0 111 -35.5t45 -103.5l-6 -47l-25 -49l-162 -291q-23 -41 -60.5 -68.5t-82.5 -27.5q-63 0 -109.5 39t-46.5 100z" />
<glyph unicode="-" horiz-adv-x="907" d="M68 561q0 55 36.5 92t96.5 37h467q61 0 98 -37t37 -98t-37 -98t-98 -37h-465q-135 0 -135 141z" />
<glyph unicode="." horiz-adv-x="520" d="M63 141q0 74 51.5 125t125.5 51q72 0 125 -50t53 -126q0 -74 -54.5 -126t-130.5 -52q-68 0 -120 53q-49 55 -50 125z" />
<glyph unicode="/" horiz-adv-x="960" d="M-4 76q0 47 154 358q102 205 288 551l164 299q45 90 60 105q43 61 98 61q49 0 83 -29.5t34 -81.5q0 -51 -154 -358q-104 -211 -291 -551l-166 -301q-18 -33 -33.5 -61.5t-25.5 -42.5q-47 -61 -98 -62q-49 0 -81 32t-32 81z" />
<glyph unicode="0" d="M74 707q0 299 141 507q162 236 453 236q287 0 452 -233q141 -203 142 -508q0 -299 -142 -508q-162 -236 -452 -236q-287 0 -453 234q-141 203 -141 508zM414 707q0 -156 49 -271q68 -153 205 -153t204 157q49 117 50 279q0 156 -52 264q-68 150 -202 150 q-135 0 -203 -152q-51 -121 -51 -274z" />
<glyph unicode="1" d="M377 1266q0 61 44 107t109 46h263q164 0 163 -166v-1095q0 -76 -44 -125t-119 -49q-72 0 -121 49q-45 51 -45 127v952q-119 0 -168 18q-82 31 -82 136z" />
<glyph unicode="2" d="M174 143q0 74 156 248l288 318q156 190 156 295q0 127 -117 126q-102 0 -152 -148t-153 -148q-76 0 -116.5 47t-40.5 120q0 190 144 319.5t337 129.5q188 0 320 -122t132 -310q0 -127 -77 -264q-55 -102 -181 -242l-192 -209l108 4l105 6q127 0 184 -28q84 -37 84 -135 q0 -59 -43 -109q-45 -45 -108 -45h-648q-72 0 -124 35q-61 41 -62 112z" />
<glyph unicode="3" d="M166 352q0 57 47 104.5t106 47.5q78 0 161 -111.5t192 -111.5q63 0 109 50t46 115q0 123 -167.5 149t-167.5 159q0 100 144 142t144 134q0 43 -34.5 71.5t-81.5 28.5q-61 0 -195 -112q-63 -53 -123 -53q-57 0 -98 43q-37 43 -37 108q0 145 158 246q141 88 297 88 q178 0 304 -107.5t126 -283.5q0 -84 -40 -158t-114 -131q104 -43 164.5 -140.5t60.5 -217.5q0 -199 -151 -326q-143 -121 -346 -121q-184 0 -334 101q-170 111 -170 286z" />
<glyph unicode="4" d="M49 428q0 39 19 82l43 74l471 731q39 61 96 89t135 28q106 0 174 -69t68 -179v-596q111 0 157 -21q74 -31 74 -127q0 -92 -74 -127q-43 -18 -157 -18v-80q0 -104 -27 -158q-37 -72 -131 -71q-96 0 -133 75q-25 53 -25 162v72h-526q-66 0 -113 31q-51 39 -51 102zM453 588 h286v487z" />
<glyph unicode="5" d="M172 233q0 66 37 115t104 49q37 0 66 -14q51 -18 80 -45l86 -41q23 -6 44 -10t44 -4q86 0 135 73q43 66 43 156q0 76 -44 130t-120 54q-35 0 -149 -49q-55 -25 -92 -24q-61 0 -93 35.5t-32 99.5q0 51 2 100t8 96l49 328q12 76 52 106.5t122 30.5h483q68 0 111 -42 t43 -113q0 -94 -86 -136q-68 -31 -195 -30l-137 6l-115 8l-20 -166q78 18 154 19q188 0 303 -146q106 -137 106 -327q0 -221 -152.5 -374t-373.5 -153q-143 0 -285 64q-178 80 -178 204z" />
<glyph unicode="6" d="M150 451q0 127 111.5 371.5t254.5 422.5q164 205 285 205q59 0 108 -48t49 -110q0 -51 -124 -200l-172 -201q29 6 58.5 10t65.5 4q168 0 284 -137t116 -309q0 -213 -149.5 -353.5t-368.5 -140.5q-223 0 -370.5 130t-147.5 356zM492 459q0 -72 50 -125t126 -53 q74 0 125 51t51 123t-50.5 125t-125.5 53q-74 0 -125 -51.5t-51 -122.5z" />
<glyph unicode="7" d="M180 1266q0 61 44 107t110 46h649q66 0 118 -48t52 -118q0 -57 -115 -317q-43 -100 -100 -223t-125 -258l-156 -316q-33 -76 -65 -108q-45 -45 -117 -45q-61 0 -112.5 43t-51.5 108q0 51 105 285q92 209 202 424l138 266l-80 -4l-193 -12q-135 0 -209 30q-94 41 -94 140z " />
<glyph unicode="8" d="M145 428q0 102 49.5 191.5t137.5 150.5q-127 104 -127 279q0 193 139 301q129 100 324 100t321 -100q139 -111 139 -301q0 -168 -127 -281q86 -49 136.5 -141t50.5 -197q0 -211 -156 -342q-147 -123 -366 -123t-365 121q-156 131 -156 342zM487 463q0 -76 52 -129 q55 -51 129 -51t127 52t53 128q0 74 -53 127q-49 53 -127 53q-76 0 -128.5 -52t-52.5 -128zM535 1024q0 -53 38 -94q44 -39 95 -39q53 0 92 39t39 94q0 51 -38 92t-93 41q-53 0 -93 -40t-40 -93z" />
<glyph unicode="9" d="M150 954q0 215 149.5 355.5t368.5 140.5q227 0 371.5 -133t144.5 -361q0 -129 -109.5 -365.5t-259.5 -422.5q-164 -203 -278 -203q-66 0 -113 47t-47 113q0 55 125 201l172 198l-60 -12l-61 -4q-172 0 -287.5 136t-115.5 310zM492 952q0 -74 51 -125t125 -51 q72 0 124 52.5t52 125.5q0 74 -51 125t-125 51q-72 0 -124 -52t-52 -126z" />
<glyph unicode=":" horiz-adv-x="520" d="M63 141q0 72 52.5 124t126.5 52q72 0 123 -53q53 -49 53 -123t-54.5 -126t-130.5 -52q-68 0 -120 53q-49 55 -50 125zM63 762q0 72 52.5 124t126.5 52q70 0 123 -53.5t53 -124.5q0 -74 -54.5 -125t-130.5 -51q-68 0 -120 53q-49 55 -50 125z" />
<glyph unicode=";" horiz-adv-x="628" d="M47 -166l6 45l25 53l162 291q25 43 61 68q12 8 27 14q28 12 57 12q68 0 111 -36.5t43 -102.5l-7 -47l-24 -49l-162 -291q-23 -41 -60.5 -68.5t-82.5 -27.5q-63 0 -109.5 39t-46.5 100zM186 762q0 72 52 124t124 52q70 0 123.5 -53.5t53.5 -122.5q0 -72 -50.5 -125 t-123.5 -53q-72 0 -125.5 53t-53.5 125z" />
<glyph unicode="&#x3c;" horiz-adv-x="1196" d="M0 567q0 31 21.5 63t58.5 52l266 131q258 129 373 178q207 88 270 88q51 0 83 -34.5t32 -88.5q0 -49 -23.5 -78.5t-70.5 -50.5l-629 -264l627 -266q96 -37 96 -135q0 -51 -32 -83t-85 -32q-63 0 -266 88q-100 43 -178 80t-197 96l-270 135q-35 12 -55.5 48t-20.5 73z" />
<glyph unicode="=" horiz-adv-x="1298" d="M63 328q0 63 41 99t103 36h844q59 0 101 -37t42 -98q0 -63 -39 -99t-104 -36h-842q-66 0 -107 34q-39 39 -39 101zM63 797q0 63 41 99t103 36h844q59 0 101 -37t42 -98q0 -63 -39 -99t-104 -36h-842q-66 0 -107 34q-39 39 -39 101z" />
<glyph unicode="&#x3e;" horiz-adv-x="1193" d="M0 168q0 47 23.5 77.5t70.5 51.5l629 266l-629 264q-51 23 -72.5 52.5t-21.5 81.5q0 49 33 82.5t84 33.5q66 0 268 -88q102 -43 178 -79t197 -97l268 -135q35 -16 56.5 -48t21.5 -67q0 -80 -76 -119l-272 -135q-125 -61 -207 -100q-63 -31 -166 -76q-207 -88 -279 -88 q-51 0 -78.5 36t-27.5 87z" />
<glyph unicode="?" horiz-adv-x="1056" d="M18 1096q0 158 156 262q139 92 309 92q197 0 340.5 -125t143.5 -321q0 -340 -342 -414q0 -86 -36 -140.5t-122 -54.5q-70 0 -115 43t-45 117v158q0 100 153.5 133t153.5 149q0 59 -45 92t-108 33t-117 -55q-117 -123 -178 -123q-59 0 -103.5 46t-44.5 108zM289 141 q0 72 52 124t124 52t125 -53t53 -125q0 -74 -53 -124t-131 -50q-68 0 -121 51q-49 53 -49 125z" />
<glyph unicode="@" horiz-adv-x="1572" d="M33 707q0 313 222 529t538 216q281 0 481 -160q211 -174 211 -450q0 -219 -135 -389q-145 -180 -365 -181q-49 0 -84 21q-31 23 -37 74q-39 -43 -110 -72q-63 -23 -136 -23q-125 0 -193.5 114t-68.5 245q0 172 107 311q115 152 282 152q154 0 242 -115q12 98 100 98 l25 -6l39 -14q29 -29 29 -70q0 -72 -25 -174q-57 -240 -57 -293l35 -33q84 0 131 111q33 86 32 186q0 227 -139 354.5t-371 127.5q-229 0 -381.5 -164t-152.5 -395q0 -248 151.5 -400.5t399.5 -152.5q92 0 207 36l213 86q33 0 56.5 -22.5t23.5 -52.5q0 -96 -207 -172 q-88 -31 -160 -47.5t-133 -16.5q-319 0 -544.5 210t-225.5 532zM590 659q0 -70 31.5 -112.5t103.5 -42.5q86 0 143 59q29 33 43.5 69t14.5 83q0 66 -42 104.5t-104 38.5q-78 0 -134 -57.5t-56 -141.5z" />
<glyph unicode="A" horiz-adv-x="1370" d="M20 121q0 104 76 325q49 152 156 404l125 305q55 156 90 201q69 94 188 94q106 0 179 -98q35 -49 90 -195l125 -311q109 -260 153 -397q78 -229 78 -330q0 -61 -47 -101q-46 -34 -107 -34h-4q-113 0 -168 143l-43 141h-520q-57 -188 -84 -221q-49 -61 -127 -61 q-68 0 -114 34.5t-46 100.5zM487 573h326l-156 502z" />
<glyph unicode="B" horiz-adv-x="1208" d="M55 162v1091q0 72 47.5 119t116.5 47h379q172 0 285.5 -100t113.5 -272q0 -86 -42 -154t-121 -117q127 -27 203.5 -122t76.5 -228q0 -211 -145 -326q-133 -104 -353 -104h-397q-74 0 -119 45t-45 121zM383 293h201q84 0 129 26q57 35 57 113q0 70 -57.5 105.5 t-130.5 35.5h-199v-280zM383 866h143q68 0 106 32t38 97q0 59 -39 97q-38 32 -101 32h-4h-143v-258z" />
<glyph unicode="C" horiz-adv-x="1239" d="M20 707q0 319 191.5 531t513.5 212q160 0 268 -39q158 -55 158 -188q0 -63 -41 -111q-37 -47 -98 -47q-51 0 -143.5 34t-137.5 34q-176 0 -272 -127q-88 -119 -88 -299q0 -182 84 -291q92 -121 270 -121q55 0 150.5 32.5t140.5 32.5q66 0 107.5 -44t41.5 -109 q0 -127 -168 -195q-123 -49 -280 -49q-317 0 -507 210t-190 534z" />
<glyph unicode="D" horiz-adv-x="1357" d="M53 162v1091q0 72 47 119t117 47h385q295 0 481 -205q180 -199 181 -497q0 -307 -174 -508q-184 -213 -488 -213h-385q-74 0 -119 45t-45 121zM383 301l166 2q184 0 276 117q86 109 86 295q0 176 -84 280q-92 117 -264 117h-180v-811z" />
<glyph unicode="E" horiz-adv-x="985" d="M57 162v1091q0 72 44 119t120 47h492q76 0 120 -40t44 -113q0 -92 -84 -136q-59 -30 -179 -30h-8l-110 2l-109 10v-248l64 2l141 8q121 0 178 -28q80 -37 80 -135q0 -92 -78 -131q-61 -31 -176 -31l-111 2l-98 8l-2 -258l70 2l161 10q129 0 189 -28q84 -37 84 -135 q0 -70 -45 -112t-119 -42h-504q-74 0 -119 45t-45 121z" />
<glyph unicode="F" horiz-adv-x="952" d="M45 160v1093q0 72 44 119t120 47h491q76 0 120 -40t44 -113q0 -96 -84 -136q-64 -30 -180 -30h-8l-109 2l-110 10v-244l102 4l96 7q119 0 174 -29q78 -37 78 -133q0 -90 -80 -133q-61 -31 -176 -31l-88 2l-106 6l4 -80l12 -192q0 -137 -33 -211q-43 -94 -145 -94 q-72 0 -121 49q-45 51 -45 127z" />
<glyph unicode="G" horiz-adv-x="1464" d="M31 707q0 309 193.5 527t502.5 218q184 0 344 -68q207 -86 207 -247q0 -59 -43 -103q-41 -37 -105 -37q-18 0 -208 99q-94 47 -181 47q-172 0 -270 -135q-88 -123 -88 -301t84 -299q96 -137 268 -138q121 0 201 73t94 194l-127 -5q-98 0 -147 29q-68 37 -68 127 q0 70 45 112t119 42h346q84 0 129 -54.5t45 -146.5q0 -289 -179 -483.5t-466 -194.5q-319 0 -507.5 210t-188.5 534z" />
<glyph unicode="H" horiz-adv-x="1427" d="M72 160v1095q0 72 44 124.5t120 52.5q100 0 145 -91q33 -72 33 -202v-41v-33q-4 -25 -4 -37l-11 -149l590 -2l-4 77l-10 176q0 133 33 205q43 94 147 95q76 0 120 -47.5t44 -127.5v-1097q0 -76 -44 -125t-122 -49q-104 0 -147 98q-16 39 -24.5 90t-8.5 127v51.5t8 104.5 l8 116h-588l5 -79l12 -193q0 -143 -33 -217q-43 -98 -149 -98q-72 0 -118 50t-46 126z" />
<glyph unicode="I" horiz-adv-x="507" d="M72 160v1095q0 76 43 125.5t121 49.5q76 0 119.5 -47.5t43.5 -127.5v-1095q0 -80 -42 -128t-119 -48q-72 0 -121 49q-45 51 -45 127z" />
<glyph unicode="J" horiz-adv-x="919" d="M37 203q0 37 8 61.5t33 50.5q41 43 110 43q31 0 125 -51q41 -24 73 -24h3q68 0 96 73q14 51 15 138v761q0 76 43 125.5t121 49.5q76 0 119.5 -47.5t43.5 -127.5v-817q0 -231 -96 -346q-104 -127 -332 -127q-133 0 -233 51q-129 66 -129 187z" />
<glyph unicode="K" horiz-adv-x="1280" d="M47 160v1095q0 76 43 125.5t121 49.5q104 0 147 -93q33 -72 33 -207v-61q-6 -51 -8 -82l-6 -117l153 191q123 147 228 246q133 123 213 123q59 0 108 -50.5t49 -113.5q0 -57 -100 -172q-63 -74 -199 -201l-145 -135l360 -375q145 -174 146 -244q0 -68 -50 -111.5 t-122 -43.5t-230 153q-117 113 -266 297l-147 184l12 -174l6 -135q0 -147 -33 -225q-43 -100 -147 -100q-72 0 -121 49q-45 51 -45 127z" />
<glyph unicode="L" horiz-adv-x="962" d="M39 162v1093q0 76 43 125.5t121 49.5q76 0 120 -47.5t44 -127.5v-954l69 2l162 10q129 0 188 -28q84 -37 84 -135q0 -70 -45 -112t-118 -42h-504q-74 0 -119 45t-45 121z" />
<glyph unicode="M" horiz-adv-x="1804" d="M47 141q0 59 3 86t13 84l37 187l127 727q14 94 67.5 149.5t147.5 55.5q123 0 226 -183q70 -129 139 -364l72 -279l71 275q63 223 142 366q102 184 223 185q90 0 143 -54.5t72 -150.5l127 -727l35 -179q8 -45 14 -96t6 -84q0 -61 -47 -108t-109 -47q-96 0 -143 61 q-29 39 -47 156l-92 610l-215 -680q-23 -76 -65 -110.5t-115 -34.5q-68 0 -112 35.5t-69 109.5l-211 680l-96 -610q-14 -104 -49 -154q-45 -63 -139 -63q-66 0 -111 45t-45 112z" />
<glyph unicode="N" horiz-adv-x="1427" d="M72 160v1095q0 80 46 127.5t128 47.5l30 -7l33 -8q41 -18 193 -201l282 -356l203 -262l4 659q0 76 43 125.5t121 49.5q76 0 120 -47.5t44 -127.5v-1095q0 -82 -47 -129q-43 -47 -125 -47q-70 0 -254 202q-113 129 -311 392l-179 241l-4 -661q0 -76 -43 -124t-118 -48 q-72 0 -121 49q-45 51 -45 125z" />
<glyph unicode="O" horiz-adv-x="1519" d="M35 707q0 328 187.5 535.5t508.5 207.5q326 0 516 -211q185 -202 185 -532q0 -324 -187.5 -534t-511.5 -210q-319 0 -514 213q-184 203 -184 531zM389 709q0 -176 80 -299q94 -137 264 -138q172 0 264 138q80 117 80 301q0 182 -78 299q-90 135 -266 135 q-172 0 -264 -137q-80 -117 -80 -299z" />
<glyph unicode="P" horiz-adv-x="1173" d="M39 160v1093q0 72 44 119t120 47l393 -2q215 0 351 -134t136 -349q0 -313 -221 -418q-141 -65 -485 -65h-10l4 -105l4 -96q0 -115 -31 -180q-41 -84 -141 -84q-74 0 -121 47q-43 49 -43 127zM367 745l170 -2q88 0 147 50.5t59 140.5q0 88 -58 139t-150 51h-168v-379z" />
<glyph unicode="Q" horiz-adv-x="1554" d="M33 707q0 324 187.5 533.5t510.5 209.5q322 0 514 -211q184 -203 185 -532q0 -121 -30 -241t-95 -216l110 -96q66 -70 66 -127t-41 -99q-37 -43 -97 -43q-53 0 -108 35q-23 10 -152 131q-70 -41 -170 -65q-43 -10 -89 -16.5t-93 -6.5q-319 0 -514 213q-184 203 -184 531z M385 700q0 -174 82 -292q92 -135 262 -136l47 2q25 0 45 11l-69 65q-35 45 -35 90q0 55 38 99.5t97 44.5q51 0 100 -31l84 -68q39 111 39 226q0 186 -78 301q-90 135 -268 135q-170 0 -266 -141q-78 -122 -78 -306z" />
<glyph unicode="R" horiz-adv-x="1196" d="M57 160v1093q0 72 47.5 119t116.5 47h387q211 0 338 -114q137 -125 137 -330q0 -152 -86 -258.5t-237 -141.5l196 -200q145 -162 146 -240q0 -63 -50.5 -107t-117.5 -44q-80 0 -199 118q-78 82 -198 246l-148 207l10 -145l4 -113q0 -143 -32 -215q-43 -98 -148 -98 q-72 0 -121 49q-45 51 -45 127zM387 811h207q74 0 118 41t44 113q0 68 -47 108.5t-115 40.5h-207v-303z" />
<glyph unicode="S" horiz-adv-x="1138" d="M31 201q0 68 41.5 121t111.5 53q29 0 82 -12.5t142.5 -41t136.5 -28.5q63 0 108 32.5t45 98.5q0 88 -166 143q-262 84 -309 115q-168 106 -168 311q0 217 154 344q143 115 366 115q145 0 246 -41q147 -55 148 -176q0 -68 -41 -112t-107 -44q-35 0 -51 3t-51 14 q-135 37 -170 37q-55 0 -98 -29t-43 -82q0 -66 165 -119q233 -72 310 -125q168 -115 168 -336q0 -236 -162 -364q-145 -115 -391 -115q-145 0 -285 49q-182 68 -182 189z" />
<glyph unicode="T" horiz-adv-x="1132" d="M72 1379.5q49 39.5 121 39.5h681q78 0 125.5 -38t47.5 -115q0 -92 -74 -129q-59 -27 -160 -27h-59l-56 2v-954q0 -76 -44 -125t-119 -49q-72 0 -121 49q-45 51 -45 127v952l-123 -4q-100 0 -152 27q-71 36 -71 128q0 77 49 116.5z" />
<glyph unicode="U" horiz-adv-x="1386" d="M57 567v688q0 72 44 124.5t120 52.5q102 0 144 -86q32 -74 32 -212v-8l-6 -155l-14 -275q0 -199 53 -290q68 -123 242 -123q178 0 246 131q51 102 51 307q0 27 -2 79t-2 77l-15 258q0 145 31 211q41 84 143 84q76 0 120 -47.5t44 -127.5l-2 -686q0 -272 -170 -440 q-84 -82 -192.5 -123t-251.5 -41q-139 0 -247 39t-198 125q-170 166 -170 438z" />
<glyph unicode="V" horiz-adv-x="1329" d="M16 1276q0 61 49.5 108.5t110.5 47.5q74 0 119 -39q31 -29 65 -111l269 -713l270 713q27 72 64 109q44 39 118 39q66 0 113 -47.5t47 -112.5q0 -51 -98 -307l-197 -480l-137 -325q-37 -84 -64 -121q-43 -53 -120 -53q-76 0 -121 51q-25 31 -62 123l-139 329l-190 467 q-96 254 -97 322z" />
<glyph unicode="W" horiz-adv-x="1947" d="M37 1270q0 72 48 117t116 45t110.5 -37t61.5 -111l159 -747l232 725q25 76 63 116q51 51 121 52q72 0 121 -50q35 -39 64 -116l227 -727l164 747q14 68 58 107t114 39q49 0 84 -23q33 -14 56.5 -55t23.5 -82q0 -168 -99 -525l-147 -518q-31 -131 -64 -172 q-50 -69 -161 -69h-3q-174 0 -233 178l-203 635l-207 -635q-55 -180 -241 -180q-78 0 -127 43q-55 49 -92 200l-93 328q-76 260 -104 379q-49 209 -49 336z" />
<glyph unicode="X" horiz-adv-x="1341" d="M31 152q0 55 96 196q37 53 81 114.5t105 137.5l129 160l-190 237q-150 199 -150 281q0 63 53.5 108.5t118.5 45.5q82 0 215 -172l152 -226l154 230q123 166 221 166q61 0 112.5 -45.5t51.5 -108.5q0 -82 -148 -279l-190 -235q139 -164 229 -287q180 -242 180 -338 q0 -68 -49 -110.5t-117 -42.5q-72 0 -172 108q-70 78 -165 221l-107 166l-127 -198q-199 -297 -330 -297q-63 0 -110 49q-43 49 -43 119z" />
<glyph unicode="Y" horiz-adv-x="1251" d="M16 1282q0 66 51.5 108t120.5 42q115 0 289 -267l113 -180l162 254q135 190 237 191q68 0 121 -41q53 -37 53 -105q0 -55 -98 -209q-53 -82 -193 -262l-118 -151v-504q0 -78 -42 -126t-120 -48q-72 0 -121 49q-45 51 -45 127v502l-215 276q-195 266 -195 344z" />
<glyph unicode="Z" horiz-adv-x="1224" d="M18 176q0 68 150 285q49 70 129 176q72 96 168 217l217 270l-162 -12l-139 -6q-152 0 -236 31q-106 41 -106 135q0 74 49 110.5t127 36.5h688q88 0 144.5 -40t56.5 -124q0 -61 -162 -299q-133 -195 -309 -417l-189 -238l514 2q78 0 126.5 -37.5t48.5 -115.5 q0 -72 -52 -115q-51 -39 -123 -39h-710q-109 0 -162 35q-68 43 -68 145z" />
<glyph unicode="[" horiz-adv-x="538" d="M68 1309q0 141 141 141h272q49 0 82 -35q35 -31 35 -82q0 -72 -51 -98q-41 -20 -113 -21h-43l-41 3v-1319l84 2q74 0 113 -21q49 -29 49 -98q0 -49 -32 -84t-83 -35h-270q-141 0 -141 141z" />
<glyph unicode="\" horiz-adv-x="960" d="M-6 1339q0 49 30.5 80t84.5 31q49 0 96 -59q27 -33 61 -107l164 -299q178 -330 289 -549q156 -311 155 -360q0 -49 -30.5 -80t-81.5 -31q-49 0 -96 60q-20 27 -64 106l-164 299q-178 330 -288 549q-156 311 -156 360z" />
<glyph unicode="]" horiz-adv-x="706" d="M70 -219q0 70 45 96q45 23 123 23h38l41 -2v1319l-84 -3q-74 0 -112 21q-51 29 -51 96q0 49 31.5 84t84.5 35h271q68 0 104.5 -37t36.5 -104v-1506q0 -68 -37 -104.5t-104 -36.5h-271q-47 0 -81.5 35t-34.5 84z" />
<glyph unicode="^" horiz-adv-x="1052" d="M33 696q0 72 143 326l189 319q47 88 141 89q37 0 72 -25q27 -18 53 -62l188 -319q145 -256 146 -326q0 -41 -30 -58t-79 -17q-90 0 -139 79l-219 406l-222 -403q-45 -82 -137 -82q-45 0 -75.5 16t-30.5 57z" />
<glyph unicode="_" horiz-adv-x="1064" d="M70 -199q0 53 61 54h991q61 0 62 -54q0 -53 -62 -53h-991q-61 0 -61 53z" />
<glyph unicode="`" horiz-adv-x="722" d="M47 1434q0 59 37 100t102 41q61 0 238 -82l135 -66q76 -34 76 -112q0 -66 -38 -103.5t-103 -37.5q-57 0 -185 57q-12 4 -53 23.5t-133 66.5q-76 35 -76 113z" />
<glyph unicode="a" horiz-adv-x="1198" d="M53 530q0 221 127 385q135 178 355 179q82 0 145 -29q63 -25 119 -88q43 96 147 96q63 0 110.5 -48t47.5 -118v-757q0 -70 -45 -118t-115 -48q-47 0 -84 25.5t-61 72.5q-47 -57 -117 -87t-147 -30q-213 0 -355 178q-127 164 -127 387zM369 526q0 -102 52 -181t154 -79 q96 0 158 82q51 78 51 178q0 102 -49 176q-57 82 -160 82q-100 0 -155 -75q-51 -79 -51 -183z" />
<glyph unicode="b" horiz-adv-x="1177" d="M39 150v1218q0 70 43 117t117 47q96 0 139 -88q31 -68 31 -197v-49v-37q-4 -25 -4 -35l-9 -116q53 41 117 61q27 8 63.5 14.5t69.5 6.5q213 0 355 -179q129 -164 129 -385t-127 -385q-139 -178 -357 -178q-84 0 -147 29q-63 25 -117 86q-25 -43 -59 -72q-34 -24 -82 -24 h-4q-68 0 -115 47q-43 49 -43 119zM356 530q0 -102 50 -176q57 -82 159 -82q98 0 158 80q49 72 49 178q0 102 -49 177q-56 81 -158 81h-2q-100 0 -155 -75q-52 -79 -52 -183z" />
<glyph unicode="c" horiz-adv-x="1019" d="M37 530q0 238 148 401t386 163q125 0 228 -43q133 -55 133 -166q0 -57 -37 -105q-18 -20 -42 -32.5t-52 -12.5q-25 0 -39 2t-49 15q-114 36 -150 36h-2q-96 0 -155 -83q-51 -78 -52 -177q0 -111 55.5 -184.5t165.5 -73.5q39 0 113 27q27 8 60.5 17.5t50.5 9.5 q53 0 93 -45.5t40 -94.5q0 -106 -137 -170q-109 -49 -232 -49q-236 0 -381 164t-145 401z" />
<glyph unicode="d" horiz-adv-x="1183" d="M39 530q0 221 127 385q135 178 354 179q150 0 252 -84l-2 73l-10 164q0 129 31 197q41 90 139 90q63 0 110 -48t47 -118v-1218q0 -70 -44 -118t-113 -48q-47 0 -84 25.5t-62 72.5q-47 -57 -116.5 -87t-147.5 -30q-213 0 -354 178q-127 164 -127 387zM356 526 q0 -102 52.5 -181t154.5 -79q96 0 158 82q51 78 51 178q0 102 -49 176q-57 82 -160 82q-100 0 -155 -75q-52 -79 -52 -183z" />
<glyph unicode="e" horiz-adv-x="1185" d="M43 528q0 227 156.5 395.5t386.5 168.5q213 0 359.5 -156t146.5 -375q0 -72 -37 -106q-37 -31 -117 -31h-555q0 -86 82 -131q66 -35 160 -35q68 0 174 49t145 49q57 0 92 -41q39 -39 39 -96q0 -123 -188 -199q-78 -29 -148.5 -43t-150.5 -14q-244 0 -394.5 160 t-150.5 405zM383 643h393q0 72 -65 125q-61 55 -138 55q-66 0 -127 -55q-53 -53 -63 -125z" />
<glyph unicode="f" horiz-adv-x="876" d="M37 913q0 86 59 121q47 27 137 27q0 274 93 383q78 88 231 88q92 0 143 -27q70 -39 70 -116q0 -121 -109.5 -135.5t-109.5 -137.5v-55h45q104 0 143 -23q59 -31 60 -125q0 -100 -80 -131q-45 -16 -168 -16v-619q0 -68 -44 -114.5t-116 -46.5q-68 0 -115 45 q-43 47 -43 119v616q-92 0 -137 27q-59 35 -59 120z" />
<glyph unicode="g" horiz-adv-x="1198" d="M53 530q0 221 127 385q135 178 355 179q82 0 145 -29q63 -25 119 -88q43 96 145 96q63 0 110.5 -48t47.5 -118v-805q0 -258 -152 -403q-74 -72 -176 -108.5t-237 -36.5q-143 0 -283 49q-182 66 -182 186q0 57 40 98t95 41q25 0 190 -61q80 -31 148 -31q121 0 180 68.5 t59 191.5q-47 -59 -120.5 -84.5t-159.5 -25.5q-215 0 -340 168q-111 152 -111 376zM369 528q0 -113 47 -180q57 -82 162 -82q100 0 157 82q49 74 49 180q0 102 -49 177q-57 81 -157 81q-102 0 -155.5 -76.5t-53.5 -181.5z" />
<glyph unicode="h" horiz-adv-x="1110" d="M47 150v1218q0 68 43 117t117 49q96 0 139 -88q31 -68 31 -197v-45v-35q-4 -25 -4 -34l-8 -115q55 31 126.5 52.5t135.5 21.5q180 0 283.5 -96.5t103.5 -274.5v-576q0 -63 -44 -113t-114 -50q-98 0 -137 88q-31 68 -31 202q0 20 2 64.5t2 69.5l13 151q0 147 -52 211 q-45 51 -123 51q-96 0 -143 -92q-33 -76 -33 -207v-50t8 -103l9 -125q0 -115 -27 -174q-37 -86 -139 -86q-68 0 -115 47q-43 49 -43 119z" />
<glyph unicode="i" horiz-adv-x="540" d="M61 1346q0 74 55.5 131t133.5 57q74 0 131 -55.5t57 -132.5q0 -72 -55 -134q-57 -57 -135 -57t-133 53q-53 57 -54 138zM92 150v757q0 70 43 117t117 47q68 0 113 -46t45 -118v-757q0 -70 -44 -118t-114 -48q-68 0 -114 48t-46 118z" />
<glyph unicode="j" horiz-adv-x="542" d="M63 1346q0 74 55.5 131t135.5 57q72 0 129 -55.5t57 -132.5q0 -72 -55 -134q-57 -57 -133 -57q-74 0 -131.5 55.5t-57.5 135.5zM92 -281v1188q0 70 43 117t117 47q68 0 113 -46t45 -118v-1188q0 -68 -48 -114q-43 -49 -112 -49q-68 0 -113 45t-45 118z" />
<glyph unicode="k" horiz-adv-x="991" d="M43 150v1218q0 68 43 117t117 49q63 0 110 -48t47 -118v-649l191 203q155 151 239 151h1q55 0 100 -43t45 -104q0 -68 -156 -217l-118 -113q104 -117 190 -229q141 -184 141 -236q0 -66 -49 -108q-49 -39 -115 -39q-68 0 -174 112q-88 94 -178 223l-112 168l4 -88l4 -116 q0 -131 -31 -203q-41 -94 -141 -94q-68 0 -115 45q-43 47 -43 119z" />
<glyph unicode="l" horiz-adv-x="497" d="M70 150v1218q0 70 43 117t116 47q68 0 113 -46t45 -118v-1221q0 -63 -44 -113t-114 -50q-68 0 -113.5 48t-45.5 118z" />
<glyph unicode="m" horiz-adv-x="1724" d="M66 150v757q0 68 43 117t116 49q104 0 154 -94q41 55 113 86q76 29 153 29q82 0 158 -31t129 -94q84 63 137 88q78 37 162 37q180 0 283.5 -96.5t103.5 -274.5v-576q0 -68 -44 -114.5t-116 -46.5q-92 0 -131 71q-35 74 -35 193l6 174l9 141q0 127 -29 185q-35 73 -125 73 h-2q-92 0 -129 -90q-29 -70 -29 -203l6 -172l9 -106q0 -115 -25 -176q-37 -90 -141 -90q-92 0 -131 71q-35 74 -35 193l6 174l8 141q0 127 -28 185q-35 73 -125 73h-2q-88 0 -129 -92q-31 -74 -31 -207q0 -25 2 -71.5t8 -114.5l4 -86q0 -119 -24 -178q-37 -90 -142 -90 q-68 0 -114 47q-43 49 -43 119z" />
<glyph unicode="n" horiz-adv-x="1138" d="M66 150v757q0 68 43 117t114 49q47 0 87 -23.5t69 -70.5q37 59 111.5 86t152.5 27q180 0 284.5 -95.5t104.5 -273.5v-576q0 -68 -44 -114.5t-116 -46.5q-98 0 -137 88q-30 66 -30 192v8q0 20 2 64.5t2 69.5l12 151q0 123 -27 178q-37 86 -145 86q-96 0 -143 -92 q-33 -76 -33 -207v-84q6 -47 8 -71l8 -125q0 -113 -27 -172q-37 -86 -139 -86q-68 0 -114 45q-43 47 -43 119z" />
<glyph unicode="o" horiz-adv-x="1181" d="M43 530q0 238 144.5 401t379.5 163q236 0 381.5 -163t145.5 -403q0 -233 -146.5 -398t-378.5 -165q-236 0 -381 164t-145 401zM358 530q0 -102 52.5 -181t154.5 -79q96 0 158 82q51 78 51 178q0 102 -49 177q-56 81 -158 81h-2q-100 0 -155 -75q-52 -79 -52 -183z" />
<glyph unicode="p" horiz-adv-x="1177" d="M39 -281v1188q0 68 43 117t117 49q45 0 81.5 -24.5t61.5 -71.5q47 57 116.5 87t149.5 30q213 0 355 -179q127 -164 127 -387q0 -221 -127 -385q-139 -178 -357 -178q-145 0 -250 84l4 -108l7 -105q0 -125 -31 -192q-41 -88 -139 -88q-68 0 -113 48t-45 115zM356 532 q0 -104 50 -178q57 -82 159 -82q98 0 158 80q49 72 49 178q0 102 -49 177q-56 81 -158 81h-2q-100 0 -155 -75q-23 -35 -37.5 -81t-14.5 -100z" />
<glyph unicode="q" horiz-adv-x="1183" d="M39 528q0 221 127 385q135 178 354 179q162 0 266 -117q25 43 61 69.5t85 26.5q63 0 110.5 -48t47.5 -118v-1188q0 -68 -48 -114q-43 -49 -112 -49q-94 0 -137 84q-31 61 -31 186l6 123l6 100q-113 -84 -254 -84q-213 0 -354 178q-127 164 -127 387zM356 530 q0 -104 50 -178q57 -82 157 -82t154.5 77t54.5 181q0 102 -49 177q-56 81 -158 81h-2q-100 0 -155 -75q-23 -35 -37.5 -81t-14.5 -100z" />
<glyph unicode="r" horiz-adv-x="821" d="M41 150v757q0 68 43 117t117 49q104 0 153 -96q41 47 97 84q59 33 116 33q66 0 114 -50.5t48 -115.5q0 -109 -165 -160t-191 -121q-12 -37 -19 -92l-4 -133l2 -146v-62.5t4 -66.5q0 -68 -44 -114.5t-113 -46.5q-68 0 -115 45q-43 47 -43 119z" />
<glyph unicode="s" horiz-adv-x="952" d="M45 182q0 57 37 105.5t94 48.5t151.5 -45t145.5 -45q31 0 56.5 13t27.5 46q0 43 -241.5 135t-241.5 305q0 152 129 256q117 92 278 93q123 0 226 -52q129 -61 129 -174q0 -59 -39 -97t-103 -38q-14 0 -135 51q-4 2 -42 14.5t-60 12.5q-33 0 -56 -16q-18 -10 -22 -45 q0 -37 125 -86q168 -66 231 -111q125 -90 125 -236q0 -158 -118.5 -255t-280.5 -97q-100 0 -175 16.5t-143 55.5q-98 55 -98 145z" />
<glyph unicode="t" horiz-adv-x="882" d="M33 913q0 86 59 121q47 27 139 27l-6 131q0 109 29 160q37 73 132 73h3q98 0 135 -75q27 -57 27 -166l-2 -64l-2 -59h45q104 0 143 -23q59 -31 60 -125q0 -100 -80 -131q-45 -16 -168 -16v-619q0 -68 -44 -114.5t-114 -46.5q-68 0 -115 45q-43 47 -43 119v616 q-92 0 -139 27q-59 35 -59 120z" />
<glyph unicode="u" horiz-adv-x="1128" d="M61 381v526q0 68 43 117t115 49q94 0 133 -72q31 -59 31 -180l-6 -147l-6 -152q0 -125 30 -186q41 -78 144 -78q100 0 143 80q31 61 31 176v41v37q-4 27 -4 39l-10 196q0 143 47 199q41 47 118 47q63 0 110.5 -48t47.5 -118v-526q0 -203 -147 -318q-135 -100 -349 -100 q-203 0 -331 105q-139 115 -140 313z" />
<glyph unicode="v" horiz-adv-x="1069" d="M35 913q0 66 49 115q51 45 119 45q55 0 88 -30.5t55 -90.5l160 -458l166 458q18 55 54 88t97 33q66 0 113 -47t47 -113q0 -41 -16 -88q-6 -31 -33 -86l-250 -628q-25 -59 -70 -92t-104 -33t-104.5 30.5t-71.5 96.5l-250 626l-33 84q-16 53 -16 90z" />
<glyph unicode="w" horiz-adv-x="1658" d="M39 920q0 68 43 110.5t115 42.5q115 0 151 -112l148 -492l92 340q92 264 215 264q117 0 213 -264q80 -299 94 -338l150 490q37 112 149 112h2q68 0 114 -41t46 -112q0 -47 -55 -218q-29 -92 -117 -321l-92 -242q-27 -76 -72 -114.5t-125 -38.5q-154 0 -242 293l-59 225 l-94 -318q-80 -202 -225 -202h-1q-70 0 -116 41q-41 41 -72 114l-213 606l-31 84q-18 54 -18 91z" />
<glyph unicode="x" horiz-adv-x="1165" d="M45 150q0 74 137 223l185 184l-164 164q-113 125 -113 186q0 68 43 117t117 49q98 0 215 -149l94 -129l131 176q90 102 187 102q61 0 108 -49q43 -49 43 -117q0 -66 -160 -231l-118 -119l188 -186q137 -150 137 -230q0 -70 -44 -113.5t-120 -43.5q-78 0 -200 137 l-152 192l-153 -194q-117 -135 -203 -135q-70 0 -114 47t-44 119z" />
<glyph unicode="y" horiz-adv-x="1105" d="M23 924q0 61 44 105t109 44q145 0 262 -338l80 -246l166 420q90 164 174 164q72 0 117 -45t45 -117q0 -63 -113 -338q-80 -195 -221 -512l-160 -356q-31 -72 -61 -106q-41 -45 -111 -45q-63 0 -111 43t-48 108q0 70 86 252l69 143l-184 426q-143 342 -143 398z" />
<glyph unicode="z" horiz-adv-x="1062" d="M39 109q0 72 197 342l243 315l-84 -4l-106 -4q-106 0 -164 28q-29 14 -45 33q-31 35 -31 94q0 74 44 111t122 37h606q37 0 64 -8q31 -6 51 -39q23 -29 22 -68q0 -41 -104 -192l-209 -279l-147 -186l67 2l154 10q61 0 104 -6t76 -23q84 -37 84 -129q0 -74 -44 -110.5 t-122 -36.5h-627q-61 0 -106 24.5t-45 88.5z" />
<glyph unicode="{" horiz-adv-x="659" d="M35 557q0 78 95 95.5t95 129.5l-2 103l-10 192q0 170 49 260q66 113 230 113h145q43 0 68.5 -26.5t25.5 -67.5q0 -90 -113 -90t-112 -113l8 -145l8 -150q0 -127 -37 -194q-49 -84 -172 -107q119 -20 170 -108q39 -72 39 -193l-8 -147l-8 -148q0 -113 112 -113 q113 0 113 -94q0 -39 -26.5 -65.5t-65.5 -26.5h-147q-164 0 -230 115q-49 86 -49 260l6 151l6 142q0 109 -95 128t-95 99z" />
<glyph unicode="|" horiz-adv-x="425" d="M70 98v1303q0 57 30.5 94t92.5 37q53 0 90 -37q10 -12 21 -34.5t11 -59.5l2 -1303q0 -55 -32.5 -94t-91.5 -39q-53 0 -91 37q-33 39 -32 96z" />
<glyph unicode="}" horiz-adv-x="819" d="M35 -244q0 92 112 92q113 0 113 113l-8 145l-8 152q0 125 37 193q49 84 172 104q-119 25 -170 109q-39 72 -39 190l8 150l8 149q0 113 -113 113t-112 92q0 37 25.5 64.5t66.5 27.5h145q166 0 232 -115q49 -86 49 -260l-6 -151l-6 -142q0 -111 95 -128t95 -97t-75.5 -95.5 t-89 -28.5t-25.5 -79l-6 -153l2 -156v-57.5t4 -61.5q0 -264 -267 -264h-147q-41 0 -66.5 25.5t-25.5 68.5z" />
<glyph unicode="~" horiz-adv-x="1196" d="M61 485q0 121 88.5 200t212.5 79q78 0 222.5 -66.5t210.5 -66.5q37 0 129 80q45 39 84 39q43 0 65 -31q20 -35 21 -80q0 -123 -88 -201t-215 -78q-84 0 -223.5 67t-207.5 67q-37 0 -129 -80q-45 -39 -81 -39q-43 0 -68 31q-20 35 -21 79z" />
<glyph horiz-adv-x="1165" d="M29 266v117h372l148 268h-520v117h587l181 328l104 -60l-149 -268h323v-117h-387l-151 -268h538v-117h-602l-178 -321l-105 59l146 262h-307z" />
<glyph horiz-adv-x="1470" d="M55 555q0 106 92.5 178t200.5 72q94 0 199 -72q37 -25 168 -137q61 53 108 92t62 49q53 35 104.5 52.5t102.5 17.5q102 0 192 -75t90 -177q0 -131 -82 -221t-213 -90q-113 0 -245 102l-121 107q-113 -117 -209 -166q-82 -41 -154 -41q-127 0 -213 88q-82 92 -82 221z M160 516q0 -68 55 -121q55 -49 127 -49q82 0 166 60q43 29 133 118q-90 82 -139 113q-94 59 -168 59q-70 0 -122 -56t-52 -124zM784 522l134 -119q81 -59 165 -59q72 0 127.5 49t55.5 125q0 70 -50.5 123t-123.5 53q-94 0 -203 -84z" />
<glyph horiz-adv-x="1175" d="M51 322q53 68 131 113.5t162 45.5q70 0 168 -30q221 -70 279 -70q133 0 208 106l80 -51q-43 -72 -121.5 -117t-171.5 -45q-76 0 -172 33q-231 76 -286 76q-57 0 -107 -35q-37 -25 -78 -86zM53 621q55 72 133 116.5t160 44.5q66 0 277 -69q104 -33 170 -33q133 0 208 108 l80 -51q-43 -76 -120 -121q-37 -20 -77 -30.5t-91 -10.5q-76 0 -175 33q-233 76 -288 76q-53 0 -107 -37q-39 -27 -78 -84z" />
<glyph horiz-adv-x="1255" d="M-2 -4l639 1380l565 -1380h-1204zM141 100h803l-379 918z" />
<glyph horiz-adv-x="1007" d="M25 750l385 735h122l388 -735l-385 -754h-125zM152 750l319 -633l322 633l-322 614z" />
<glyph horiz-adv-x="1509" />
<glyph unicode="&#xa1;" horiz-adv-x="520" d="M63 918q0 72 52.5 124t124.5 52q70 0 123 -53.5t53 -125.5t-52 -124t-124 -52q-70 0 -123.5 53.5t-53.5 125.5zM82 -215v698q0 70 43 124.5t115 54.5q70 0 114.5 -52.5t44.5 -126.5v-696q0 -72 -43 -126t-116 -54q-74 0 -117 51q-20 25 -30.5 55.5t-10.5 71.5z" />
<glyph unicode="&#xa2;" horiz-adv-x="1019" d="M33 526q0 219 124 376t341 188l-4 73q0 43 12 74t53 31q35 0 53 -33q14 -37 15 -82l-2 -37v-24q106 0 196 -50q104 -59 105 -159q0 -57 -36 -103.5t-93 -46.5q-35 0 -88 19l-84 28l-2 -504l174 46q47 0 90 -46q39 -45 39 -94q0 -94 -107 -157q-80 -43 -194 -62l2 -78 q0 -45 -11 -71q-16 -39 -55 -39q-35 0 -53 35q-12 31 -12 84v38l2 31q-213 23 -339 183.5t-126 379.5zM352 528q0 -88 36 -156.5t112 -92.5v495q-72 -20 -113 -92q-35 -70 -35 -154z" />
<glyph unicode="&#xa3;" horiz-adv-x="1339" d="M23 713q0 90 73 127q49 25 158 24l-31 92q-10 47 -10 86q0 203 168 314q145 94 358 94q184 0 336 -86q174 -102 174 -279q0 -61 -48 -106t-107 -45q-61 0 -113 70q-111 154 -242 153q-80 0 -133 -41q-53 -37 -53 -117q0 -37 7 -62.5t9 -30.5t21 -44l170 2q74 0 124 -41 t50 -110q0 -104 -105 -140q-25 -6 -72.5 -10t-121.5 -4q0 -59 -3 -79.5t-14 -53.5q-12 -57 -59 -113l143 9l195 10q162 0 246 -33q113 -43 112 -143q0 -74 -50 -117t-128 -43h-731q-78 0 -135 40t-57 120q0 47 43 131q109 201 116 272l-51 -2q-139 0 -189 40t-50 116z" />
<glyph unicode="&#xa4;" horiz-adv-x="1183" d="M61 709q0 147 82 278l-49 47q-23 29 -26 64q0 41 31.5 74.5t74.5 33.5q37 0 66 -20q8 -4 53 -49q59 41 126.5 61.5t151.5 20.5q158 0 279 -82l39 37q37 31 80 30q41 0 73.5 -32.5t32.5 -73.5q0 -33 -24 -64l-54 -49q82 -123 82 -276q0 -154 -82 -281l50 -47 q23 -29 26 -64q0 -41 -31.5 -74.5t-72.5 -33.5q-37 0 -66 20q-8 4 -53 50q-61 -41 -129 -61.5t-150 -20.5q-156 0 -278 84q-49 -49 -72 -64q-12 -6 -49 -10q-43 0 -73.5 31.5t-30.5 76.5q0 27 14 50l61 65q-41 59 -61.5 127t-20.5 152zM319 705q0 -111 74 -188t180 -77 q109 0 179.5 77t70.5 188q0 109 -69.5 187.5t-180.5 78.5q-106 0 -180 -77t-74 -189z" />
<glyph unicode="&#xa5;" horiz-adv-x="1259" d="M35 1282q0 68 53 109q59 39 129 39q92 0 232 -195l159 -250l162 252q141 195 240 195q74 0 124 -41t50 -113q0 -78 -154 -274l-117 -146l82 4q72 0 105 -16q55 -25 55 -86q0 -59 -63 -90q-55 -20 -142 -21l-88 2l-88 8l-2 -102l70 4l100 4q100 0 154 -22q59 -18 59 -84 q0 -59 -63 -90q-55 -20 -142 -21l-88 2l-88 8l2 -139q0 -57 -6 -95t-22 -67q-38 -73 -138 -73q-96 0 -139 75q-29 57 -29 166l2 86l2 47l-88 -6l-94 -4q-90 0 -137 21q-63 29 -64 96q0 55 60.5 78.5t148.5 23.5h43.5t42.5 -4l86 -6l2 102l-86 -6l-88 -4q-94 0 -151.5 22.5 t-57.5 90.5q0 57 44.5 77.5t115.5 20.5l41 -2h41l-162 205q-109 150 -108 219z" />
<glyph unicode="&#xa6;" horiz-adv-x="423" d="M70 98v389q0 57 30.5 94t92.5 37q53 0 90 -36q10 -12 21 -35t11 -60l-2 -389q0 -55 -31.5 -94t-88.5 -39q-53 0 -91 37q-33 39 -32 96zM70 1012v389q0 57 30.5 94t92.5 37q53 0 90 -37q10 -12 21 -34.5t11 -59.5l-2 -389q0 -55 -31.5 -94t-88.5 -39q-53 0 -91 36 q-33 39 -32 97z" />
<glyph unicode="&#xa7;" horiz-adv-x="1116" d="M39 561q0 102 49 180q43 64 139 127q-51 47 -75.5 100.5t-24.5 125.5q0 164 127 264q117 92 287 92q143 0 268 -70q147 -84 147 -217q0 -51 -37.5 -94t-89.5 -43q-61 0 -146 89t-151 89q-41 0 -69 -22q-29 -18 -29 -62q0 -74 154 -159q242 -133 284 -166 q154 -117 154 -281q0 -215 -180 -315q47 -37 74.5 -88.5t27.5 -106.5q0 -178 -118.5 -277.5t-297.5 -99.5q-152 0 -274 66q-154 80 -154 217q0 53 38 93t94 40q51 0 104 -53q117 -117 195 -117q43 0 76.5 19.5t33.5 60.5q0 72 -156 164q-250 139 -292 172q-158 121 -158 272 zM291 578q0 -86 143 -162q80 -39 221 -86l97 61q43 41 43 105q0 88 -146 166q-31 16 -89 41.5t-134 54.5q-76 -25 -104 -66q-31 -37 -31 -114z" />
<glyph unicode="&#xa8;" horiz-adv-x="940" d="M61 1376q0 68 46.5 114t111.5 46q66 0 113 -47t47 -113q0 -63 -44 -110t-112 -47t-115 44t-47 113zM522 1374q0 68 46 114t112 46t113 -47t47 -113t-46 -111.5t-112 -45.5q-68 0 -115 45q-23 23 -34 50t-11 62z" />
<glyph unicode="&#xa9;" horiz-adv-x="1601" d="M33 707q0 317 209.5 530t531.5 213q317 0 528 -211t211 -530t-209.5 -532.5t-531.5 -213.5q-319 0 -529 212t-210 532zM264 709q0 -233 138.5 -395t369.5 -162q223 0 364.5 162.5t141.5 394.5q0 229 -137 387q-145 168 -369 168q-227 0 -367.5 -162t-140.5 -393zM401 723 q0 182 112 302t292 120q111 0 211 -64q111 -72 110 -178q0 -37 -24.5 -69.5t-65.5 -32.5q-55 0 -99 77.5t-142 77.5q-86 0 -133 -77q-37 -66 -37 -162q0 -104 39 -168q49 -80 145 -80q76 0 129 84t109 84q37 0 61.5 -25.5t24.5 -66.5q0 -102 -117 -187q-106 -76 -215 -75 q-182 0 -293 125q-53 63 -80 141t-27 174z" />
<glyph unicode="&#xaa;" horiz-adv-x="868" d="M63 1114q0 141 91.5 238.5t232.5 97.5q16 0 37.5 -1t56.5 -15q43 -12 80 -50q12 35 33.5 50.5t58.5 15.5q47 0 79 -22.5t32 -69.5v-494q0 -43 -32 -67.5t-79 -24.5q-66 0 -96 66q-33 -33 -78 -49.5t-92 -16.5q-133 0 -231 100q-92 102 -93 242zM287 1110q0 -57 35 -98 q39 -39 94 -39q53 0 90 40t37 97q0 55 -36 98t-93 43q-59 0 -93 -40t-34 -101z" />
<glyph unicode="&#xab;" horiz-adv-x="1093" d="M53 561q0 92 136.5 208t216.5 116q39 0 70.5 -32t31.5 -77q0 -88 -115 -160l-108 -63l141 -86q84 -61 84 -131q0 -43 -33 -77t-71 -34q-31 0 -68 19l-37 22l-166 117q-82 76 -82 178zM543 561q0 92 136 208t216 116q39 0 70.5 -32t31.5 -77q0 -88 -114 -160l-109 -63 l141 -86q84 -61 84 -131q0 -43 -32.5 -77t-73.5 -34q-29 0 -51.5 10.5t-50.5 32.5l-166 117q-41 39 -61.5 81t-20.5 95z" />
<glyph unicode="&#xac;" horiz-adv-x="1247" d="M20 797q0 63 41 99t105 36h823q88 0 125 -36t37 -128v-403q0 -61 -34 -101.5t-95 -40.5q-78 0 -115 74q-25 53 -24 164l2 98l8 103h-727q-66 0 -107 34q-39 39 -39 101z" />
<glyph unicode="&#xad;" horiz-adv-x="1300" d="M66 561q0 63 40.5 99t102.5 36h844q57 0 99 -36.5t42 -96.5q0 -61 -38 -98t-103 -37l-844 -2q-63 0 -105 35q-39 39 -38 100z" />
<glyph unicode="&#xae;" horiz-adv-x="1601" d="M33 707q0 317 209.5 530t531.5 213q317 0 528 -211t211 -530t-209.5 -532.5t-531.5 -213.5q-319 0 -529 212t-210 532zM264 709q0 -233 138.5 -395t369.5 -162q223 0 364.5 162.5t141.5 394.5q0 229 -137 387q-145 168 -369 168q-227 0 -367.5 -162t-140.5 -393zM473 414 v602q0 92 92 92h248q141 0 215 -52t74 -190q0 -86 -47 -155.5t-131 -69.5l94 -119q63 -88 63 -133q0 -33 -28 -53q-29 -16 -64 -17q-53 0 -158 142l-120 178h-54l5 -66l4 -84q0 -74 -19 -116q-25 -53 -80 -54q-41 0 -67.5 27t-26.5 68zM657 788h146q47 0 73.5 18.5 t26.5 72.5q0 43 -29 59q-25 18 -71 18h-146v-168z" />
<glyph unicode="&#xaf;" horiz-adv-x="718" d="M66 1374q0 55 36.5 92t92.5 37h475q55 0 92 -35.5t37 -93.5q0 -53 -36 -91t-93 -38h-475q-57 0 -95 35q-35 39 -34 94z" />
<glyph unicode="&#xb0;" horiz-adv-x="729" d="M55 1163q0 119 84 203t205 84q117 0 203 -85t86 -204t-84 -203t-205 -84t-205 84t-84 205zM207 1163q0 -55 41 -96t96 -41t95 39t40 96q0 53 -41 96t-96 43q-53 0 -94 -40.5t-41 -96.5z" />
<glyph unicode="&#xb1;" horiz-adv-x="1239" d="M18 131q0 63 41 99t103 36h844q57 0 99 -36.5t42 -98.5q0 -61 -39 -100q-39 -35 -102 -35h-842q-66 0 -107 35q-39 39 -39 100zM20 723q0 82 72 119q59 27 162 26h47.5t52.5 -4l95 -6v80q0 88 22 131q31 59 113 59q86 0 116 -63q20 -47 21 -141v-66l63 2l138 10 q102 0 155 -26q72 -37 72 -121q0 -82 -72 -119q-59 -27 -159 -26l-103 2l-94 8v-82q0 -90 -23 -129q-33 -57 -114 -58q-80 0 -113 60q-10 20 -16 53t-6 78v37l2 41l-101 -6l-96 -4q-104 0 -160 26q-74 35 -74 119z" />
<glyph unicode="&#xb2;" horiz-adv-x="800" d="M51 662q0 47 105 151l194 182q104 109 105 176q0 31 -24.5 48.5t-57.5 21.5q-55 0 -92 -83t-107 -83q-51 0 -79.5 27.5t-28.5 77.5q0 117 99 193.5t222 76.5t209 -68q94 -76 94 -196q0 -53 -24.5 -109.5t-77.5 -120.5q-35 -41 -187 -184l74 2h25q12 0 41 4q76 0 121 -22 q47 -19 47 -82q0 -45 -28 -73t-71 -28h-436q-45 0 -84 22.5t-39 66.5z" />
<glyph unicode="&#xb3;" horiz-adv-x="796" d="M47 795q0 43 32 68.5t77 25.5q35 0 75 -37q80 -80 148 -80q35 0 64.5 24.5t29.5 61.5q0 57 -106.5 76.5t-106.5 101.5q0 57 91 82t91 74q0 25 -24.5 37t-50.5 12q-35 0 -123 -57q-39 -25 -76 -29q-37 0 -63.5 29.5t-26.5 62.5q0 96 104 156q88 47 197 47q113 0 199 -64.5 t86 -171.5q0 -55 -27 -95t-78 -70q66 -25 108 -87.5t42 -132.5q0 -123 -105 -200q-92 -68 -227 -68q-113 0 -211 60q-119 70 -119 174z" />
<glyph unicode="&#xb4;" horiz-adv-x="720" d="M45 1317q0 74 76 110l188 91q133 57 193 57q57 0 95 -41t38 -100q0 -39 -18.5 -66t-57.5 -47l-188 -90q-134 -57 -193 -57q-57 0 -95 40.5t-38 102.5z" />
<glyph unicode="&#xb5;" horiz-adv-x="1110" d="M49 -281v1188q0 68 43 117t115 49q92 0 133 -72q31 -55 31 -178l-6 -147l-7 -150q0 -125 31 -186q41 -78 143 -78q98 0 142 88q33 72 33 199v72q-6 59 -9 92l-6 106q0 145 47 205q37 49 119 49q63 0 110.5 -48t47.5 -118v-760q0 -70 -47 -116q-43 -47 -113 -47 q-47 0 -83 24.5t-62 69.5q-37 -43 -80 -67.5t-94 -24.5q-111 0 -166 86l4 -111l6 -108q0 -135 -31 -203q-43 -94 -143 -94q-68 0 -113 45t-45 118z" />
<glyph unicode="&#xb6;" horiz-adv-x="1058" d="M49 1038q0 197 125 302.5t326 105.5h471v-111h-70v-1677h-119v1677h-295v-1677h-116v995q-147 23 -234.5 127.5t-87.5 257.5z" />
<glyph unicode="&#xb7;" horiz-adv-x="516" d="M63 553q0 72 52.5 124t126.5 52q72 0 123 -51t51 -125q0 -72 -50.5 -125t-123.5 -53q-72 0 -125.5 50t-53.5 128z" />
<glyph unicode="&#xb8;" horiz-adv-x="456" d="M53 -348q0 27 17.5 50.5t40.5 23.5q20 0 43 -9l69 -22q18 0 33 8q31 16 31 49q0 43 -76 51q-74 0 -74 52q0 33 53 98l46 51h145l-76 -102h43q70 0 114 -44t44 -118q0 -88 -90 -141q-80 -45 -172 -45q-63 0 -117 18q-74 25 -74 80z" />
<glyph unicode="&#xb9;" horiz-adv-x="555" d="M57 1346q0 39 31 65.5t70 26.5l182 2q47 0 84 -31q33 -33 33 -84v-647q0 -53 -33 -85t-90 -32q-51 0 -81 35t-30 84v559q-78 0 -112 12q-53 23 -54 95z" />
<glyph unicode="&#xba;" horiz-adv-x="845" d="M55 1114q0 145 99 242q49 45 111.5 69.5t137.5 24.5q147 0 248 -94t101 -242q0 -147 -101 -244.5t-248 -97.5q-150 0 -249 93t-99 249zM279 1110q0 -57 36 -98t91 -41q59 0 92.5 40t33.5 99t-34.5 100t-91.5 41q-55 0 -91 -42t-36 -99z" />
<glyph unicode="&#xbb;" horiz-adv-x="1093" d="M53 776q0 45 29 76t76 31q31 0 67 -19l39 -22l162 -115q84 -74 84 -172q0 -76 -49 -137q-18 -20 -199 -150l-53 -32q-16 -6 -51 -11q-43 0 -73 32t-30 77q0 84 117 158l109 63l-144 86q-84 61 -84 135zM543 776q0 45 28.5 76t75.5 31q31 0 68 -19l37 -22l161 -115 q84 -74 84 -172q0 -76 -49 -137q-16 -23 -196 -150l-54 -32q-16 -6 -51 -11q-43 0 -72.5 32t-29.5 77q0 84 117 158l108 63l-143 86q-84 61 -84 135z" />
<glyph unicode="&#xbc;" horiz-adv-x="1849" d="M0 1339q0 43 27.5 71t70.5 28l183 2q47 0 84 -31q33 -33 32 -84v-645q0 -53 -35.5 -86t-87.5 -33q-51 0 -80.5 35t-29.5 84v559h-33q-39 0 -56.5 3t-35.5 13q-39 23 -39 84zM305 82q0 49 168 354q63 113 139 244q88 150 187 317l207 346q35 59 63.5 83t63.5 24 q55 0 87.5 -33t32.5 -88q0 -51 -168 -354l-325 -557l-207 -344q-31 -55 -49 -74q-35 -37 -78 -37q-53 0 -87 34t-34 85zM934 252l6 41q2 6 8 19.5t27 37.5l307 441q33 49 70 64t98 15q70 0 117 -41q49 -37 49 -108v-361q72 0 110.5 -15t38.5 -83q0 -66 -45 -86 q-37 -14 -104 -14q0 -100 -12 -129q-23 -49 -115 -49q-68 0 -87.5 35.5t-19.5 105.5v39h-340q-51 0 -79.5 19.5t-28.5 68.5zM1221 362h161v236z" />
<glyph unicode="&#xbd;" horiz-adv-x="1804" d="M6 1339q0 43 27.5 71t70.5 28h181q55 0 86.5 -30t31.5 -83l3 -645q0 -53 -35 -86q-18 -16 -39 -24.5t-51 -8.5q-51 0 -81 35t-30 84v559h-33q-39 0 -56.5 3t-35.5 13q-39 23 -39 84zM309 86q0 49 170 352l326 561l207 344q35 59 63.5 83t63.5 24q49 0 83.5 -32t34.5 -83 q0 -55 -167 -360q-137 -250 -324 -557l-209 -346l-51 -72q-35 -35 -82 -35q-49 0 -82 36t-33 85zM1061 84q0 47 104 152l195 182q104 109 104 176q0 31 -25.5 49.5t-58.5 18.5q-51 0 -88 -81t-116 -81q-43 0 -72 28.5t-29 73.5q0 123 98.5 196.5t231.5 73.5q123 0 208 -73.5 t85 -196.5q0 -119 -150 -276l-137 -131l64 4l77 4q78 0 121 -23q45 -18 45 -84q0 -45 -27.5 -72.5t-70.5 -27.5h-436q-45 0 -84 22.5t-39 65.5z" />
<glyph unicode="&#xbe;" horiz-adv-x="1851" d="M2 795q0 43 32 68.5t77 25.5q35 0 75 -37q84 -80 146 -80q33 0 63.5 24.5t30.5 61.5q0 57 -106.5 76.5t-106.5 99.5q0 53 125 92q59 18 59 64q0 23 -23.5 37t-54.5 14q-33 0 -122 -59q-39 -25 -76 -29q-37 0 -63.5 29.5t-26.5 64.5q0 96 104 156q88 47 197 47 q111 0 197.5 -62.5t86.5 -173.5q0 -53 -28 -96q-25 -43 -76 -74q72 -25 111 -86t39 -139q0 -121 -111 -194q-96 -61 -227 -62q-102 0 -207 62q-115 68 -115 170zM414 86q0 49 170 352q127 225 325 561l207 344q35 59 63.5 83t63.5 24q49 0 84 -32t35 -83q0 -55 -168 -360 q-96 -172 -150 -266q-63 -111 -174 -293l-208 -344l-52 -72q-35 -35 -82 -35q-49 0 -81.5 36t-32.5 85zM936 254l6 41q2 6 8 19.5t27 37.5l307 441q29 43 70 56t98 13q70 0 117 -41q49 -37 49 -108v-351q72 0 110.5 -15t38.5 -83q0 -66 -45 -86q-37 -14 -104 -14 q0 -100 -12 -129q-23 -49 -115 -49q-68 0 -87.5 35.5t-19.5 105.5v39h-340q-51 0 -79.5 19.5t-28.5 68.5zM1223 365h161v235z" />
<glyph unicode="&#xbf;" horiz-adv-x="1028" d="M18 53q0 340 342 414q0 92 36 143.5t124 51.5q68 0 113 -45.5t45 -114.5v-158q0 -100 -153.5 -133t-153.5 -150q0 -53 42 -88.5t97 -35.5q84 0 161 89t148 89q61 0 104.5 -44t43.5 -108q0 -162 -152 -264q-135 -92 -303 -92q-205 0 -344 119q-150 127 -150 327zM344 915 q0 72 52.5 124.5t121.5 52.5q72 0 123 -54q53 -49 53 -123q0 -72 -52 -124t-124 -52t-123 51.5t-51 124.5z" />
<glyph unicode="&#xc0;" horiz-adv-x="1355" d="M6 121q0 104 76 325q49 152 156 404l124 305q55 156 91 201q69 94 190 94q102 0 176 -98q35 -49 90 -195l125 -305q98 -244 156 -403q78 -229 78 -330q0 -61 -47 -101q-47 -35 -113 -34q-113 0 -168 143l-43 141h-520q-57 -188 -84 -221q-49 -61 -127 -61 q-68 0 -114 34.5t-46 100.5zM276 1763q0 59 37 100.5t105 41.5q57 0 184 -58q12 -4 53 -23.5t133 -66.5q76 -34 76 -112q0 -61 -39 -101.5t-102 -40.5q-57 0 -184 58q-12 4 -53.5 23.5t-133.5 66.5q-76 35 -76 112zM471 573h326l-154 502z" />
<glyph unicode="&#xc1;" horiz-adv-x="1355" d="M6 121q0 104 76 325q49 152 156 404l124 305q55 156 91 201q69 94 190 94q102 0 176 -98q35 -49 90 -195l125 -305q98 -244 156 -403q78 -229 78 -330q0 -61 -47 -101q-47 -35 -113 -34q-113 0 -168 143l-43 141h-520q-57 -188 -84 -221q-49 -61 -127 -61 q-68 0 -114 34.5t-46 100.5zM406 1647q0 74 73 110l189 90q133 57 194 58q59 0 94 -41q37 -37 37 -101q0 -72 -73 -112l-189 -90q-133 -58 -192 -58q-57 0 -95 41t-38 103zM471 573h326l-154 502z" />
<glyph unicode="&#xc2;" horiz-adv-x="1363" d="M14 121q0 104 76 325q49 152 156 404l125 305q55 156 90 201q69 94 188 94q106 0 178 -98q35 -49 91 -195l124 -311q109 -260 154 -397q78 -229 78 -330q0 -61 -47 -101q-47 -35 -111 -34q-113 0 -168 143l-43 141h-520q-57 -188 -84 -221q-49 -61 -127 -61 q-68 0 -114 34.5t-46 100.5zM238 1634q0 70 61 123q12 10 219 103l66 28q29 12 59 17q25 0 59 -15l68 -26l180 -78q100 -59 101 -160q0 -45 -31 -84t-78 -39q-61 0 -190 64l-107 53l-147 -72q-47 -20 -86 -32.5t-64 -12.5q-49 0 -82 39q-29 39 -28 92zM481 573h326l-156 502 z" />
<glyph unicode="&#xc3;" horiz-adv-x="1368" d="M18 121q0 104 76 325q49 152 156 404l125 305q55 156 90 201q69 94 188 94q106 0 178 -98q35 -49 91 -195l125 -311q109 -260 153 -397q78 -229 78 -330q0 -61 -47 -101q-47 -35 -111 -34q-113 0 -168 143l-43 141h-520q-57 -188 -84 -221q-49 -61 -127 -61 q-68 0 -114 34.5t-46 100.5zM223 1640q0 84 65.5 149.5t149.5 65.5q63 0 137 -28q172 -61 207 -66q33 0 105 64q35 31 67 30q53 0 87 -38.5t34 -94.5q0 -88 -62.5 -153.5t-154.5 -65.5q-29 0 -59.5 6.5t-71.5 22.5q-84 33 -136 49t-75 16q-33 0 -67 -28q-72 -59 -107 -64 q-55 0 -87 38t-32 97zM485 573h326l-156 502z" />
<glyph unicode="&#xc4;" horiz-adv-x="1366" d="M16 121q0 104 76 325q49 152 156 404l125 305q55 156 90 201q69 94 190 94q102 0 176 -98q35 -49 91 -195l124 -305q98 -244 156 -403q78 -229 78 -330q0 -61 -47 -101q-47 -35 -113 -34q-113 0 -168 143l-43 141h-520q-57 -188 -84 -221q-49 -61 -127 -61 q-68 0 -114 34.5t-46 100.5zM258 1706q0 68 46 114t112 46t112.5 -47t46.5 -113t-46 -112t-111 -46q-68 0 -115 45q-23 23 -34 50.5t-11 62.5zM481 573h326l-154 502zM715 1704q0 68 46 114t111 46q66 0 113 -47t47 -113q0 -63 -44 -110.5t-111 -47.5q-68 0 -115 44t-47 114 z" />
<glyph unicode="&#xc5;" horiz-adv-x="1355" d="M6 121q0 104 76 325q49 152 156 404l124 305q55 156 91 201q69 94 188 94q106 0 178 -98q35 -49 90 -195l125 -311q109 -260 154 -397q78 -229 78 -330q0 -61 -47 -101q-47 -35 -111 -34q-113 0 -168 143l-43 141h-520q-57 -188 -84 -221q-49 -61 -127 -61 q-68 0 -114 34.5t-46 100.5zM436 1692q0 78 62 137q61 55 147 55q74 0 132.5 -61.5t58.5 -139.5q0 -82 -62.5 -142t-144.5 -60q-80 0 -140 61q-53 63 -53 150zM473 573h326l-156 502zM551 1679q0 -35 26.5 -58.5t63.5 -23.5q33 0 56.5 27t23.5 62t-26.5 58t-61.5 23 t-58.5 -26.5t-23.5 -61.5z" />
<glyph unicode="&#xc6;" horiz-adv-x="1765" d="M20 145q0 80 138 334q82 156 276 463l209 334q55 92 107.5 117.5t169.5 25.5l604 -2q72 0 119 -41t47 -110q0 -96 -84 -136q-66 -31 -189 -30l-108 2l-111 10v-248l64 2l141 8q121 0 178 -28q80 -37 80 -133q0 -90 -80 -133q-61 -31 -178 -31l-100 2l-105 8l-2 -258l70 2 l161 10q125 0 189 -28q86 -37 86 -135q0 -70 -45 -112t-119 -42h-506q-131 0 -155 129l-9 143h-442l-90 -186q-66 -98 -168 -98q-66 0 -109 45q-39 49 -39 116zM590 573h278v523z" />
<glyph unicode="&#xc7;" horiz-adv-x="1230" d="M10 707q0 319 191.5 531t515.5 212q162 0 266 -39q160 -59 160 -188q0 -63 -41 -111q-37 -47 -101 -47q-51 0 -143 34t-137 34q-176 0 -272 -127q-86 -115 -87 -299q0 -182 84 -291q92 -121 271 -121q55 0 150.5 32.5t140.5 32.5q66 0 106.5 -42t40.5 -111 q0 -127 -168 -195q-123 -49 -280 -49q-317 0 -507 210t-190 534zM383 -348q0 27 17.5 50.5t39.5 23.5q20 0 43 -9l70 -22q27 0 44 16.5t17 42.5q0 49 -73 49q-74 0 -74 52q0 33 53 98l45 51h146l-76 -102h45q70 0 114 -44t44 -118q0 -90 -90 -141q-74 -43 -175 -43 q-47 0 -66.5 2t-49.5 14q-74 25 -74 80z" />
<glyph unicode="&#xc8;" horiz-adv-x="970" d="M47 162v1091q0 72 47 119t119 47h492q76 0 119.5 -40t43.5 -113q0 -96 -84 -136q-66 -31 -188 -30l-109 2l-110 10v-248l63 2l142 8q121 0 178 -28q80 -37 80 -135q0 -92 -78 -131q-61 -31 -176 -31l-111 2l-98 8l-2 -258l69 2l162 10q129 0 189 -28q84 -37 84 -135 q0 -70 -45.5 -112t-118.5 -42h-504q-74 0 -119 45t-45 121zM76 1765q0 59 37 100.5t104 41.5q57 0 184 -58q12 -4 53.5 -23.5t133.5 -66.5q76 -34 76 -112q0 -61 -39 -101.5t-103 -40.5q-57 0 -184 58q-12 4 -53 23.5t-133 66.5q-76 35 -76 112z" />
<glyph unicode="&#xc9;" horiz-adv-x="970" d="M47 162v1091q0 72 47 119t119 47h492q76 0 119.5 -40t43.5 -113q0 -96 -84 -136q-66 -31 -188 -30l-109 2l-110 10v-248l63 2l142 8q121 0 178 -28q80 -37 80 -135q0 -92 -78 -131q-61 -31 -176 -31l-111 2l-98 8l-2 -258l69 2l162 10q129 0 189 -28q84 -37 84 -135 q0 -70 -45.5 -112t-118.5 -42h-504q-74 0 -119 45t-45 121zM205 1649q0 74 74 110l188 90q133 57 195 58q59 0 94 -41q37 -37 37 -101q0 -72 -74 -112l-189 -90q-133 -58 -192 -58q-57 0 -95 41t-38 103z" />
<glyph unicode="&#xca;" horiz-adv-x="997" d="M51 1636q0 70 62 123q12 10 219 103l65 28q29 12 60 17q25 0 59 -15l68 -26l180 -78q98 -59 98 -160q0 -45 -29.5 -84t-76.5 -39q-61 0 -191 64l-106 53l-148 -72q-47 -20 -85.5 -32.5t-65.5 -12.5q-49 0 -79 40t-30 91zM72 162v1091q0 72 44 119t120 47h491 q76 0 120 -40t44 -113q0 -96 -84 -136q-66 -31 -189 -30l-108 2l-111 10l2 -248l64 2l141 8q119 0 176 -28q80 -37 80 -135q0 -92 -78 -131q-61 -31 -176 -31l-110 2l-99 8v-258l70 2l162 10q129 0 188 -28q84 -37 84 -135q0 -70 -45 -112t-119 -42h-503q-74 0 -119 45 t-45 121z" />
<glyph unicode="&#xcb;" horiz-adv-x="985" d="M57 1708q0 68 46.5 114t111.5 46q66 0 113 -47t47 -113t-46 -112t-112 -46q-68 0 -115 45q-23 23 -34 50.5t-11 62.5zM59 162v1091q0 72 44 119t120 47h492q76 0 120 -40t44 -113q0 -96 -84 -136q-66 -31 -189 -30l-108 2l-111 10l2 -248l64 2l141 8q121 0 178 -28 q80 -37 80 -135q0 -90 -80 -131q-61 -31 -176 -31l-100 2l-109 8v-258l70 2l161 10q129 0 189 -28q84 -37 84 -135q0 -70 -45 -112t-119 -42h-504q-74 0 -119 45t-45 121zM516 1706q0 68 46 114t112 46t113 -47t47 -113t-46.5 -112t-111.5 -46q-68 0 -115 45 q-23 23 -34 50.5t-11 62.5z" />
<glyph unicode="&#xcc;" horiz-adv-x="628" d="M41 1761q0 59 37 103q39 39 100 39q57 0 187 -58l186 -90q76 -35 76 -113q0 -61 -39 -101t-101 -40q-61 0 -237 82l-135 66q-74 35 -74 112zM233 160v1095q0 76 43 125.5t121 49.5q76 0 120 -47.5t44 -127.5v-1095q0 -80 -42 -128t-120 -48q-72 0 -120 49q-45 51 -46 127 z" />
<glyph unicode="&#xcd;" horiz-adv-x="565" d="M37 1645q0 74 76 110l188 90q133 57 191 58q57 0 96 -40t39 -102q0 -39 -18.5 -65.5t-57.5 -46.5l-189 -90q-133 -58 -192 -58q-57 0 -95 41t-38 103zM104 160v1095q0 76 43 125.5t123 49.5q76 0 120 -47.5t44 -127.5v-1095q0 -74 -43 -125t-121 -51q-72 0 -120 49 q-45 51 -46 127z" />
<glyph unicode="&#xce;" horiz-adv-x="747" d="M18 1632q0 70 62 123l217 103l68 30q31 12 57 17q23 0 82 -25l45 -22l180 -76q98 -55 98 -158q0 -53 -34.5 -88t-90.5 -35q-47 0 -178 66l-100 51l-148 -72q-47 -20 -85.5 -32.5t-63.5 -12.5q-45 0 -77 41t-32 90zM260 160v1095q0 76 43 125.5t123 49.5q76 0 120 -47.5 t44 -127.5v-1095q0 -74 -43 -125t-121 -51q-72 0 -121 49q-45 51 -45 127z" />
<glyph unicode="&#xcf;" horiz-adv-x="718" d="M25 1704q0 68 46 114t111 46q66 0 113 -47t47 -113t-46 -112t-112 -46q-68 0 -114 45q-23 23 -34 50.5t-11 62.5zM248 160v1095q0 76 43 125.5t121 49.5q76 0 119.5 -47.5t43.5 -127.5v-1095q0 -80 -41.5 -128t-119.5 -48q-72 0 -121 49q-45 51 -45 127zM481 1702 q0 68 46 114t112 46t113 -47t47 -113q0 -63 -44 -110.5t-112 -47.5t-115 44t-47 114z" />
<glyph unicode="&#xd0;" horiz-adv-x="1513" d="M39 719q0 74 48 100.5t128 26.5l-8 106l-6 156q0 139 32 213q43 98 148 98h383q293 0 483 -205q180 -199 180 -497q0 -305 -176 -508q-184 -213 -487 -213h-385q-104 0 -148 96q-33 76 -32 215v86q6 47 8 72l8 123q-86 0 -123 22q-53 31 -53 109zM545 303l166 2 q184 0 278 119q86 109 86 295q0 170 -89 282.5t-261 112.5h-180v-266l110 4q86 0 123 -23q53 -31 53 -110q0 -80 -55 -111q-39 -23 -123 -22l-55 2l-53 2v-287z" />
<glyph unicode="&#xd1;" horiz-adv-x="1413" d="M57 160v1095q0 80 46.5 127.5t129.5 47.5l31 -7l31 -8q41 -18 192 -201l283 -356l203 -262l4 659q0 76 43 125.5t121 49.5q76 0 120 -47.5t44 -127.5v-1095q0 -82 -48 -129q-43 -47 -122 -47q-70 0 -254 202q-113 129 -312 392l-178 241l-4 -661q0 -74 -44 -123t-120 -49 q-72 0 -121 49q-45 51 -45 125zM256 1636q0 86 65.5 151.5t149.5 65.5q63 0 137 -28q172 -61 207 -66q33 0 68 29q74 61 106 65q55 0 87 -38.5t32 -92.5q0 -90 -65.5 -155.5t-155.5 -65.5q-59 0 -129 29q-168 66 -211 65q-31 0 -105 -61q-37 -31 -67 -31q-55 0 -87 38 t-32 95z" />
<glyph unicode="&#xd2;" horiz-adv-x="1499" d="M14 707q0 328 187.5 535.5t509.5 207.5q326 0 516 -211q184 -202 184 -532q0 -328 -182 -531q-190 -213 -514 -213q-317 0 -509 210t-192 534zM356 1765q0 59 37 103q39 39 103 39q57 0 186 -58l186 -90q76 -34 76 -112q0 -61 -39 -101.5t-100 -40.5t-238 82l-135 66 q-76 35 -76 112zM371 709q0 -176 80 -299q94 -137 264 -138q172 0 264 138q80 117 80 301q0 182 -78 299q-90 135 -266 135q-172 0 -264 -137q-80 -117 -80 -299z" />
<glyph unicode="&#xd3;" horiz-adv-x="1499" d="M14 707q0 328 187.5 535.5t509.5 207.5q326 0 516 -211q184 -202 184 -532q0 -328 -182 -531q-190 -213 -514 -213q-317 0 -509 210t-192 534zM371 709q0 -176 80 -299q94 -137 264 -138q172 0 264 138q80 117 80 301q0 182 -78 299q-90 135 -266 135q-172 0 -264 -137 q-80 -117 -80 -299zM485 1649q0 74 74 110l189 90q133 57 192 58q57 0 95 -41t38 -101q0 -39 -17.5 -64.5t-56.5 -47.5l-188 -90q-134 -58 -193 -58q-57 0 -95 41t-38 103z" />
<glyph unicode="&#xd4;" horiz-adv-x="1507" d="M23 707q0 328 187 535.5t509 207.5q326 0 516 -211q184 -202 184 -532q0 -324 -187.5 -534t-510.5 -210q-319 0 -514 213q-184 203 -184 531zM315 1636q0 70 62 123q12 10 219 103l66 28q29 12 61 17q27 0 63 -15l62 -28l180 -78q100 -59 100 -158q0 -53 -34.5 -88 t-87.5 -35q-39 0 -140 47l-143 70l-148 -72q-47 -20 -85.5 -32.5t-63.5 -12.5q-47 0 -79 40t-32 91zM375 709q0 -176 80 -299q94 -137 266 -138q172 0 264 138q80 117 80 301t-78 299q-92 135 -268 135q-172 0 -264 -137q-80 -117 -80 -299z" />
<glyph unicode="&#xd5;" horiz-adv-x="1511" d="M27 707q0 328 187 535.5t509 207.5q326 0 516 -211q184 -202 184 -532q0 -328 -182 -531q-190 -213 -514 -213q-317 0 -508.5 210t-191.5 534zM301 1642q0 84 65.5 150t151.5 66q61 0 135 -29q172 -61 207 -66q33 0 68 29q74 61 106 66q55 0 87 -39t32 -93 q0 -90 -65.5 -155.5t-155.5 -65.5q-59 0 -129 29q-168 66 -209 65q-33 0 -68 -28q-72 -59 -106 -64q-55 0 -87 38t-32 97zM383 709q0 -176 80 -299q94 -137 264 -138q172 0 264 138q80 117 80 301q0 182 -78 299q-90 135 -266 135q-172 0 -264 -137q-80 -117 -80 -299z" />
<glyph unicode="&#xd6;" horiz-adv-x="1511" d="M27 707q0 328 187 535.5t509 207.5q326 0 516 -211q184 -202 184 -532q0 -324 -187 -534t-511 -210q-319 0 -514 213q-184 203 -184 531zM340 1708q0 68 46 114t112 46t112.5 -47t46.5 -113t-46 -112t-111 -46q-68 0 -115 45q-23 23 -34 50.5t-11 62.5zM379 709 q0 -176 80 -299q94 -137 266 -138q172 0 264 138q80 117 80 301t-78 299q-92 135 -268 135q-172 0 -264 -137q-80 -117 -80 -299zM797 1706q0 68 46 114t111 46q66 0 113 -47t47 -113t-46 -112t-112 -46q-68 0 -114 45q-23 23 -34 50.5t-11 62.5z" />
<glyph unicode="&#xd7;" horiz-adv-x="1124" d="M47 207q0 61 131 192l176 164l-172 160q-135 133 -135 186q0 49 43 98.5t98 49.5q53 0 191 -137l162 -172l161 172q137 137 193 137q47 0 93 -50.5t46 -97.5q0 -49 -137 -186l-172 -160l174 -162q135 -135 135 -194q0 -49 -48 -94t-97 -45q-51 0 -187 135l-161 176 l-162 -174q-137 -137 -191 -137q-47 0 -94 44t-47 95z" />
<glyph unicode="&#xd8;" horiz-adv-x="1564" d="M35 0q0 41 39 94l129 139q-70 94 -107 220q-16 68 -24.5 125t-8.5 129q0 324 187.5 533.5t511.5 209.5q119 0 225.5 -32t198.5 -99l92 113q72 76 115 75q35 0 64.5 -23.5t29.5 -62.5q0 -53 -92 -155l-76 -80q70 -96 105.5 -222t35.5 -255q0 -324 -187.5 -535t-512.5 -211 q-123 0 -228.5 32t-195.5 101l-92 -108q-68 -74 -113 -74q-37 0 -66.5 23.5t-29.5 62.5zM416 707q0 -53 7 -102.5t28 -98.5l514 571q-33 29 -91.5 47.5t-111.5 18.5q-170 0 -264 -137q-82 -123 -82 -299zM557 340q37 -33 92 -53q55 -16 113 -17q172 0 264 138q80 117 80 299 q0 109 -33 204z" />
<glyph unicode="&#xd9;" horiz-adv-x="1357" d="M37 567v688q0 72 44 124.5t120 52.5q102 0 143 -86q33 -76 33 -220l-6 -155l-15 -275q0 -199 54 -290q67 -123 241 -123q172 0 244 129q53 100 53 307l-6 160l-14 258q0 143 33 209q41 84 141 84q76 0 120 -47.5t44 -127.5v-686q0 -272 -170 -440q-84 -82 -192.5 -123 t-252.5 -41q-139 0 -246.5 39t-197.5 125q-170 166 -170 438zM295 1761q0 59 37 103q39 39 100 39q63 0 240 -82l135 -66q76 -35 76 -113q0 -61 -40 -101t-102 -40q-61 0 -237 82l-135 66q-74 35 -74 112z" />
<glyph unicode="&#xda;" horiz-adv-x="1357" d="M37 567v688q0 72 44 124.5t120 52.5q102 0 143 -86q33 -76 33 -220l-6 -155l-15 -275q0 -199 54 -290q67 -123 241 -123q172 0 244 129q53 100 53 307l-6 160l-14 258q0 143 33 209q41 84 141 84q76 0 120 -47.5t44 -127.5v-686q0 -272 -170 -440q-84 -82 -192.5 -123 t-252.5 -41q-139 0 -246.5 39t-197.5 125q-170 166 -170 438zM422 1645q0 74 76 110l188 90q133 57 191 58q57 0 96 -40t39 -102q0 -39 -18.5 -65.5t-57.5 -46.5l-188 -90q-134 -58 -193 -58q-57 0 -95 41t-38 103z" />
<glyph unicode="&#xdb;" horiz-adv-x="1363" d="M43 567l2 688q0 72 44 124.5t120 52.5q102 0 143 -86q33 -76 33 -220q0 -31 -2 -57q-8 -109 -8 -156l-10 -219q0 -98 12 -167.5t41 -120.5q67 -123 239 -123q178 0 246 131q51 102 51 307q0 27 -2 79t-2 77l-14 258q0 145 31 211q41 84 143 84q76 0 120 -47.5t44 -127.5 v-686q0 -276 -170 -440t-447 -164q-139 0 -246.5 39t-197.5 125q-170 166 -170 438zM254 1632q0 76 59 123q14 12 224 103l59 26q43 18 63 19q16 0 26.5 -2.5t37.5 -14.5q12 -4 20.5 -7t40.5 -21l181 -76q100 -59 100 -158q0 -53 -35 -88t-88 -35q-39 0 -139 47l-141 70 l-148 -72q-47 -20 -86 -32.5t-66 -12.5q-45 0 -76.5 41t-31.5 90z" />
<glyph unicode="&#xdc;" horiz-adv-x="1368" d="M47 567l2 688q0 72 44 124.5t120 52.5q102 0 143 -86q33 -76 33 -220q0 -31 -2 -57q-8 -109 -8 -156l-10 -219q0 -98 12 -167.5t41 -120.5q68 -123 240 -123q178 0 245 131q51 102 51 307q0 27 -2 79t-2 77l-14 258q0 145 31 211q41 84 143 84q76 0 120 -47.5t44 -127.5 v-686q0 -276 -170 -440t-446 -164q-139 0 -247 39t-198 125q-170 166 -170 438zM274 1704q0 68 46.5 114t111.5 46q66 0 113 -47t47 -113q0 -63 -44 -110.5t-112 -47.5t-115 44t-47 114zM735 1702q0 68 46 114t112 46t113 -47t47 -113t-46 -112t-112 -46q-68 0 -115 45 q-23 23 -34 50.5t-11 62.5z" />
<glyph unicode="&#xdd;" horiz-adv-x="1243" d="M6 1282q0 66 51.5 108t122.5 42q115 0 289 -267l113 -180l161 254q135 190 238 191q70 0 121 -39t51 -107q0 -55 -98 -209q-55 -84 -191 -262l-119 -151l-2 -504q0 -78 -42 -126t-119 -48q-72 0 -121 49q-45 51 -45 127v502l-287 378q-123 178 -123 242zM352 1647 q0 74 76 110l188 90q135 59 191 60q61 0 97 -39t36 -105q0 -72 -74 -112l-188 -90q-134 -58 -193 -58q-57 0 -95 41t-38 103z" />
<glyph unicode="&#xde;" horiz-adv-x="1171" d="M35 160v1095q0 76 43 125.5t121 49.5q96 0 135 -66q31 -53 31 -156q438 0 583 -125q133 -115 133 -358q0 -313 -221 -418q-139 -63 -493 -63q0 -131 -21 -178q-35 -80 -147 -80q-76 0 -120 47t-44 127zM365 537h170q86 0 145 50t59 138t-56 138t-151 50h-167v-376z" />
<glyph unicode="&#xdf;" horiz-adv-x="1179" d="M51 150v909q0 205 133 340t340 135q199 0 327 -115.5t128 -314.5q0 -74 -32 -143.5t-91 -114.5q109 -39 174 -154q57 -104 57 -231q0 -195 -134 -345.5t-330 -150.5q-76 0 -129.5 38t-53.5 112q0 104 159 159.5t159 196.5q0 145 -165 190.5t-165 161.5q0 86 117 137.5 t117 139.5q0 127 -132 127q-96 0 -139 -101q-33 -86 -33 -252q0 -47 2 -77q10 -154 11 -193q0 -70 6 -160t6 -110q0 -168 -33 -248q-41 -102 -141 -102q-68 0 -115 47q-43 49 -43 119z" />
<glyph unicode="&#xe0;" horiz-adv-x="1179" d="M35 530q0 221 127 385q139 178 356 179q164 0 262 -117q43 96 148 96q63 0 110 -48t47 -118v-757q0 -70 -44 -118t-115 -48q-47 0 -84 25.5t-62 72.5q-47 -57 -116.5 -87t-147.5 -30q-213 0 -354 178q-127 164 -127 387zM221 1434q0 59 37 102q39 39 100 39q63 0 240 -82 l135 -66q76 -34 76 -112q0 -61 -40 -101t-101 -40t-238 81l-135 66q-74 35 -74 113zM352 526q0 -102 52.5 -181t154.5 -79q96 0 158 82q51 78 51 178q0 102 -49 176q-57 82 -160 82q-100 0 -156 -75q-51 -79 -51 -183z" />
<glyph unicode="&#xe1;" horiz-adv-x="1179" d="M35 530q0 221 127 385q139 178 356 179q164 0 262 -117q43 96 148 96q63 0 110 -48t47 -118v-757q0 -70 -44 -118t-115 -48q-47 0 -84 25.5t-62 72.5q-47 -57 -116.5 -87t-147.5 -30q-213 0 -354 178q-127 164 -127 387zM348 1317q0 78 76 110l188 91q133 57 191 57 q57 0 96 -40t39 -101q0 -39 -18.5 -66t-57.5 -47l-188 -90q-134 -57 -193 -57q-57 0 -95 40.5t-38 102.5zM352 526q0 -102 52.5 -181t154.5 -79q96 0 158 82q51 78 51 178q0 102 -49 176q-57 82 -160 82q-100 0 -156 -75q-51 -79 -51 -183z" />
<glyph unicode="&#xe2;" horiz-adv-x="1189" d="M43 530q0 221 127 385q139 178 356 179q164 0 262 -117q43 96 148 96q63 0 110.5 -48t47.5 -118v-757q0 -70 -44 -118t-114 -48q-47 0 -86 26.5t-62 71.5q-47 -57 -116.5 -87t-145.5 -30q-213 0 -354 178q-129 166 -129 387zM180 1305q0 70 62 122q12 10 219 103l67 31 q31 12 58 16q23 0 82 -25l45 -22l180 -76q100 -59 100 -158q0 -53 -34.5 -87.5t-88.5 -34.5q-39 0 -139 47l-143 69l-148 -71q-47 -20 -85.5 -32.5t-63.5 -12.5q-47 0 -79 39.5t-32 91.5zM360 526q0 -102 52.5 -181t154.5 -79q96 0 158 82q51 78 51 178q0 102 -49 176 q-57 82 -160 82q-100 0 -155 -75q-52 -79 -52 -183z" />
<glyph unicode="&#xe3;" horiz-adv-x="1193" d="M49 530q0 221 127 385q135 178 354 179q82 0 146 -29q63 -25 119 -88q43 96 147 96q63 0 110.5 -48t47.5 -118v-757q0 -70 -44 -118t-116 -48q-47 0 -84 25.5t-61 72.5q-47 -57 -117 -87t-148 -30q-213 0 -354 178q-127 164 -127 387zM168 1311q0 86 67.5 150.5 t149.5 64.5q29 0 59.5 -6.5t71.5 -22.5q174 -66 209 -65q33 0 68 28q74 61 106 66q53 0 87 -39t34 -92q0 -90 -62.5 -155.5t-154.5 -65.5q-29 0 -59.5 6t-71.5 22q-172 66 -213 66q-33 0 -68 -29q-74 -61 -106 -65q-55 0 -86 39.5t-31 97.5zM367 526q0 -102 52 -181t154 -79 q96 0 158 82q51 78 51 178q0 102 -49 176q-57 82 -160 82q-100 0 -155 -75q-51 -79 -51 -183z" />
<glyph unicode="&#xe4;" horiz-adv-x="1191" d="M47 530q0 221 127 385q135 178 354 179q82 0 146 -29q63 -25 119 -88q43 96 147 96q63 0 110.5 -48t47.5 -118v-757q0 -70 -44 -118t-116 -48q-47 0 -84 25.5t-61 72.5q-47 -57 -117 -87t-148 -30q-213 0 -354 178q-127 164 -127 387zM201 1376q0 68 46 114t111 46 q66 0 113 -47t47 -113q0 -63 -44 -110t-112 -47t-114.5 44t-46.5 113zM365 526q0 -102 52 -181t154 -79q96 0 158 82q51 78 51 178q0 102 -49 176q-57 82 -160 82q-100 0 -155 -75q-51 -79 -51 -183zM662 1374q0 68 46 114t111 46q66 0 113 -47t47 -113t-46 -111.5 t-112 -45.5q-68 0 -114 45q-23 23 -34 50t-11 62z" />
<glyph unicode="&#xe5;" horiz-adv-x="1179" d="M35 530q0 221 127 385q135 178 354 179q82 0 146 -29q63 -25 118 -88q43 96 146 96q63 0 110 -48t47 -118v-757q0 -70 -44 -118t-113 -48q-47 0 -84 25.5t-62 72.5q-47 -57 -116.5 -87t-147.5 -30q-213 0 -354 178q-127 164 -127 387zM352 526q0 -102 52.5 -181 t154.5 -79q96 0 158 82q51 78 51 178q0 102 -49 176q-57 82 -160 82q-100 0 -156 -75q-51 -79 -51 -183zM377 1333q0 76 62.5 134.5t138.5 58.5q84 0 141 -57.5t57 -143.5t-57 -143.5t-150 -57.5q-80 0 -136 62.5t-56 146.5zM494 1321q0 -31 27.5 -56.5t60.5 -25.5 t57.5 27.5t24.5 62.5q0 33 -27 56.5t-64 23.5q-33 0 -56 -26.5t-23 -61.5z" />
<glyph unicode="&#xe6;" horiz-adv-x="1916" d="M43 532q0 221 127 386q139 178 356 178q80 0 144.5 -26t113.5 -87q6 53 44 83t96 30q74 0 116 -70q51 33 129 53q39 8 74 12.5t80 4.5q213 0 358.5 -156t145.5 -375q0 -72 -39 -108q-37 -31 -117 -31h-577q0 -88 100 -133q78 -33 182 -33q53 0 125 31q154 68 176 67 q55 0 94 -42t39 -95q0 -125 -190 -198q-145 -55 -299 -56q-63 0 -87 3t-67 14q-70 12 -131 55q-41 -74 -114 -74q-63 0 -99 29q-37 25 -37 86q-106 -113 -260 -113q-213 0 -354 178q-129 166 -129 387zM360 528q0 -102 52.5 -181t154.5 -79q96 0 158 82q51 78 51 178 q0 102 -49 177q-57 82 -160 81q-100 0 -155 -75q-52 -79 -52 -183zM1094 643h415q0 74 -65.5 127t-143.5 53q-76 0 -137 -53q-61 -49 -69 -127z" />
<glyph unicode="&#xe7;" horiz-adv-x="1013" d="M29 530q0 238 148 401t386 163q125 0 228 -43q133 -55 133 -166q0 -57 -37 -105q-18 -20 -42 -32.5t-52 -12.5q-25 0 -39.5 2t-48.5 15q-117 37 -152 36q-96 0 -156 -83q-51 -78 -51 -177q0 -111 55.5 -184.5t165.5 -73.5q39 0 113 27q27 8 60.5 17.5t50.5 9.5 q53 0 93 -45.5t40 -94.5q0 -106 -138 -170q-109 -49 -231 -49q-236 0 -381 164t-145 401zM260 -350q0 27 16.5 50.5t40.5 23.5q14 0 68 -21l45 -10q18 0 33 8q31 16 31 49q0 43 -76 51q-74 0 -74 52q0 33 53 98l45 51h148l-78 -102h49q66 0 109 -46.5t43 -115.5 q0 -88 -90 -141q-78 -45 -170 -46q-63 0 -119 19q-74 25 -74 80z" />
<glyph unicode="&#xe8;" horiz-adv-x="1169" d="M29 528q0 227 156.5 395.5t385.5 168.5q213 0 359.5 -156t146.5 -375q0 -72 -37 -106q-37 -31 -116 -31h-555q0 -86 82 -131q66 -35 159 -35q61 0 135 31q164 68 183 67q55 0 94 -42t39 -95q0 -123 -189 -199q-78 -29 -148.5 -43t-150.5 -14q-244 0 -394 160t-150 405z M195 1436q0 59 36.5 100t104.5 41q57 0 184 -57q12 -4 53 -23.5t134 -66.5q75 -35 75 -113q0 -66 -37.5 -103.5t-103.5 -37.5q-57 0 -184 57q-12 4 -53.5 23.5t-133.5 66.5q-76 35 -75 113zM367 643h391q0 70 -62.5 125t-138.5 55q-66 0 -127 -55q-53 -53 -63 -125z" />
<glyph unicode="&#xe9;" horiz-adv-x="1169" d="M29 528q0 227 156.5 395.5t385.5 168.5q213 0 359.5 -156t146.5 -375q0 -72 -37 -106q-37 -31 -116 -31h-555q0 -86 82 -131q66 -35 159 -35q61 0 135 31q164 68 183 67q55 0 94 -42t39 -95q0 -123 -189 -199q-78 -29 -148.5 -43t-150.5 -14q-244 0 -394 160t-150 405z M324 1319q0 74 73 111l189 90q133 57 192 57q57 0 95 -41t38 -100q0 -39 -18.5 -66t-56.5 -47l-189 -90q-133 -57 -192 -57q-55 0 -93 40.5t-38 102.5zM367 643h391q0 70 -62.5 125t-138.5 55q-66 0 -127 -55q-53 -53 -63 -125z" />
<glyph unicode="&#xea;" horiz-adv-x="1177" d="M37 528q0 227 156.5 395.5t386.5 168.5q213 0 359 -156t146 -375q0 -72 -36 -106q-37 -31 -117 -31h-555q0 -86 82 -131q66 -35 159 -35q61 0 136 31q164 68 182 67q55 0 94 -42t39 -95q0 -123 -188 -199q-78 -29 -148.5 -43t-150.5 -14q-244 0 -394.5 160t-150.5 405z M156 1309q0 76 59 123q12 12 223 100l60 27q43 18 61 18q16 0 26.5 -2t37.5 -14l63 -29l180 -76q100 -59 101 -158q0 -43 -32 -81.5t-77 -38.5q-59 0 -188 61l-109 53l-147 -71q-47 -20 -86 -32.5t-64 -12.5q-43 0 -78 41q-31 43 -30 92zM375 643h391q0 70 -62.5 125 t-138.5 55q-66 0 -127 -55q-53 -53 -63 -125z" />
<glyph unicode="&#xeb;" horiz-adv-x="1179" d="M39 528q0 231 157.5 397.5t387.5 166.5q213 0 358 -156t145 -375q0 -72 -36 -106q-37 -31 -117 -31h-553q0 -86 82 -131q66 -35 160 -35q61 0 135 31q164 68 182 67q55 0 94 -42t39 -95q0 -121 -190 -199q-78 -29 -148.5 -43t-150.5 -14q-244 0 -394.5 160t-150.5 405z M174 1378q0 68 46 114t112 46t113 -47t47 -113t-46.5 -111.5t-111.5 -45.5q-68 0 -115 45q-23 23 -34 50t-11 62zM379 643h391q0 72 -65 125q-61 55 -136 55q-66 0 -127 -55q-53 -53 -63 -125zM633 1376q0 68 46 114t112 46t112.5 -47t46.5 -113t-46 -111.5t-111 -45.5 q-68 0 -115 45q-23 23 -34 50t-11 62z" />
<glyph unicode="&#xec;" horiz-adv-x="714" d="M41 1434q0 59 37 100t104 41q57 0 185 -57q12 -4 53 -23.5t133 -67.5q76 -34 76 -112q0 -66 -38 -103.5t-104 -37.5q-57 0 -184 57q-12 4 -53 23.5t-133 66.5q-76 35 -76 113zM238 150v757q0 70 43 117t116 47q68 0 113 -46t45 -118l2 -757q0 -70 -44 -118t-116 -48 q-68 0 -113.5 48t-45.5 118z" />
<glyph unicode="&#xed;" horiz-adv-x="563" d="M39 1317q0 74 74 110l188 91q133 57 193 57q57 0 95 -41t38 -100q0 -39 -18.5 -66t-57.5 -47l-189 -90q-133 -57 -190 -57t-95 40.5t-38 102.5zM111 150v757q0 68 43 116t114 48q68 0 113 -46t45 -118l2 -757q0 -70 -44 -118t-114 -48q-68 0 -113.5 48t-45.5 118z" />
<glyph unicode="&#xee;" horiz-adv-x="919" d="M20 1307q0 68 62 120l221 103l59 26q43 18 64 19q16 0 26.5 -2t36.5 -14l64 -29l180 -76q100 -59 101 -158q0 -43 -32 -81.5t-77 -38.5q-59 0 -188 61l-109 53l-147 -71q-47 -20 -86 -32.5t-64 -12.5q-47 0 -79 41.5t-32 91.5zM266 150v757q0 70 43 117t117 47 q68 0 113 -46t45 -118v-757q0 -70 -44 -118t-114 -48q-68 0 -114 48t-46 118z" />
<glyph unicode="&#xef;" horiz-adv-x="720" d="M23 1376q0 68 46 114t111 46q66 0 113 -47t47 -113q0 -63 -44 -110t-112 -47t-114.5 44t-46.5 113zM254 150v757q0 70 43 117t117 47q68 0 112.5 -46t44.5 -118v-757q0 -70 -44 -118t-113 -48q-68 0 -114 48t-46 118zM483 1374q0 68 46 114t112 46t113 -47t47 -113 t-46 -111.5t-112 -45.5q-68 0 -115 45q-23 23 -34 50t-11 62z" />
<glyph unicode="&#xf0;" horiz-adv-x="1187" d="M43 496q0 229 132 380.5t357 151.5q59 0 111.5 -11t93.5 -48q-31 68 -80 123q-27 31 -55.5 54t-58.5 38l-99 -51q-135 -70 -178 -70q-29 0 -50 24.5t-26 57.5q0 55 99 104l84 39l-94 55q-51 41 -52 93q0 59 54.5 88.5t119.5 29.5q72 0 156 -31.5t141 -76.5l111 59 q74 37 117 37q31 0 54.5 -26.5t23.5 -59.5q0 -35 -37 -65l-125 -62q139 -123 202 -344q49 -172 50 -403q0 -133 -31 -239.5t-96 -192.5q-143 -186 -400 -187q-227 0 -375.5 151.5t-148.5 381.5zM360 489q0 -86 61.5 -152.5t147.5 -66.5t146.5 69t60.5 157q0 84 -61 157 q-63 70 -148 70q-92 0 -149.5 -70t-57.5 -164z" />
<glyph unicode="&#xf1;" horiz-adv-x="1128" d="M61 150v757q0 68 43 117t115 49q47 0 87 -23.5t69 -70.5q37 59 110.5 86t151.5 27q180 0 284.5 -95.5t104.5 -273.5v-576q0 -68 -44 -114.5t-114 -46.5q-98 0 -137 88q-31 68 -31 200q0 20 2.5 64.5t2.5 69.5l12 151q0 123 -27 178q-37 86 -145 86q-96 0 -144 -92 q-33 -76 -32 -207v-84q6 -47 8 -71l8 -125q0 -113 -27 -172q-37 -86 -139 -86q-68 0 -115 45q-43 47 -43 119zM119 1311q0 86 66.5 150.5t152.5 64.5q57 0 129 -29q174 -66 211 -65q31 0 65 28q78 61 107 66q55 0 87 -39t32 -92q0 -92 -63.5 -156.5t-151.5 -64.5 q-29 0 -59.5 6t-71.5 22q-84 33 -136.5 49.5t-74.5 16.5q-33 0 -105 -64q-35 -31 -67 -30q-53 0 -90 38q-31 41 -31 99z" />
<glyph unicode="&#xf2;" horiz-adv-x="1167" d="M29 530q0 238 144 401t378 163q236 0 381 -163t145 -403q0 -231 -145.5 -397t-376.5 -166q-236 0 -381 164t-145 401zM195 1438q0 59 36.5 100t104.5 41q57 0 184 -57q12 -4 53 -23.5t134 -66.5q75 -35 75 -113q0 -66 -37.5 -103.5t-103.5 -37.5q-57 0 -184 57 q-12 4 -53.5 23.5t-133.5 66.5q-76 35 -75 113zM346 530q0 -102 52.5 -181t154.5 -79q96 0 158 82q51 78 51 178q0 102 -49 177q-57 82 -160 81q-100 0 -156 -75q-51 -79 -51 -183z" />
<glyph unicode="&#xf3;" horiz-adv-x="1167" d="M29 530q0 238 144 401t378 163q236 0 381 -163t145 -403q0 -231 -145.5 -397t-376.5 -166q-236 0 -381 164t-145 401zM324 1321q0 74 73 111l189 90q133 57 192 57q57 0 95 -41t38 -100q0 -39 -17 -64.5t-56 -48.5l-189 -90q-133 -57 -192 -57q-57 0 -95 41t-38 102z M346 530q0 -102 52.5 -181t154.5 -79q96 0 158 82q51 78 51 178q0 102 -49 177q-57 82 -160 81q-100 0 -156 -75q-51 -79 -51 -183z" />
<glyph unicode="&#xf4;" horiz-adv-x="1175" d="M37 530q0 238 144.5 401t377.5 163q236 0 381 -163t145 -403q0 -231 -145 -397t-377 -166q-236 0 -381 164t-145 401zM156 1311q0 76 59 123q12 12 223 100l60 27q43 18 63 18q16 0 26.5 -2t37.5 -14q16 -4 26.5 -9.5t34.5 -19.5l180 -76q100 -59 101 -158 q0 -43 -32 -81.5t-77 -38.5q-59 0 -188 61l-107 53l-147 -71q-47 -20 -86 -32.5t-66 -12.5q-43 0 -78 41q-31 43 -30 92zM354 530q0 -102 52.5 -181t154.5 -79q96 0 158 82q51 78 51 178q0 102 -49 177q-57 82 -160 81q-100 0 -155 -75q-52 -79 -52 -183z" />
<glyph unicode="&#xf5;" horiz-adv-x="1179" d="M43 530q0 238 144.5 401t377.5 163q236 0 381.5 -163t145.5 -403q0 -231 -145.5 -397t-377.5 -166q-236 0 -381 164t-145 401zM141 1315q0 86 66.5 150.5t152.5 64.5q29 0 60 -6t72 -23q174 -66 208 -65q31 0 66 28q78 61 108 66q51 0 84 -39t33 -92q0 -92 -63.5 -156.5 t-151.5 -64.5q-29 0 -59.5 6t-71.5 22q-84 33 -136 49.5t-75 16.5q-33 0 -104 -64q-35 -31 -68 -30q-53 0 -90 39q-31 41 -31 98zM358 530q0 -102 52.5 -181t154.5 -79q96 0 158 82q51 78 51 178q0 102 -49 177q-57 82 -160 81q-100 0 -155 -75q-52 -79 -52 -183z" />
<glyph unicode="&#xf6;" horiz-adv-x="1177" d="M41 530q0 238 144.5 401t377.5 163q236 0 381.5 -163t145.5 -403q0 -231 -145.5 -397t-377.5 -166q-236 0 -381 164t-145 401zM178 1380q0 68 46 114t112 46t113 -47t47 -113t-46.5 -111.5t-111.5 -45.5q-68 0 -115 45q-23 23 -34 50.5t-11 61.5zM356 530 q0 -102 52.5 -181t154.5 -79q96 0 158 82q51 78 51 178q0 102 -49 177q-57 82 -160 81q-100 0 -155 -75q-52 -79 -52 -183zM635 1378q0 68 46 114t112 46t112.5 -47t46.5 -113q0 -63 -44 -110t-111 -47q-68 0 -115 44t-47 113z" />
<glyph unicode="&#xf7;" horiz-adv-x="1210" d="M-8 561q0 63 41 99t102 36h844q57 0 99 -36.5t42 -96.5q0 -61 -38 -98t-103 -37l-842 -2q-66 0 -106 35q-39 39 -39 100zM369 139q0 76 56 132.5t138 56.5q78 0 130 -58.5t52 -136.5q0 -76 -59 -130t-135 -54q-70 0 -126 56t-56 134zM369 983q0 80 56 135.5t138 55.5 q78 0 130 -58.5t52 -136.5q0 -74 -56 -129t-132 -55q-74 0 -131 55t-57 133z" />
<glyph unicode="&#xf8;" horiz-adv-x="1255" d="M39 10q0 45 53 101l86 82q-43 66 -69.5 154.5t-26.5 180.5q0 240 144.5 402t381.5 162q184 0 320 -111l78 84q55 55 94 55q27 0 51.5 -23.5t24.5 -54.5q0 -41 -52 -98l-86 -86q43 -66 70 -154t27 -176q0 -233 -146.5 -400t-382.5 -167q-184 0 -319 111l-78 -84 q-55 -55 -94 -56q-31 0 -51.5 20.5t-24.5 57.5zM401 528q0 -59 11 -92l303 318q-45 33 -109 32q-98 0 -153 -75q-51 -78 -52 -183zM504 301q27 -16 50.5 -24.5t51.5 -8.5q96 0 158 82q51 78 51 178q0 25 -2 47.5t-8 42.5z" />
<glyph unicode="&#xf9;" horiz-adv-x="1101" d="M43 381l2 526q0 68 43 117t113 49q90 0 133 -74q33 -66 33 -178l-9 -166l-6 -135q0 -123 33 -186q41 -76 143 -76t144 80q29 57 28 176l-6 156l-6 157q0 143 47 199q37 47 117 47q63 0 110.5 -48t47.5 -118v-526q0 -203 -148 -318q-135 -100 -348 -100q-203 0 -332 105 q-139 115 -139 313zM168 1436q0 59 37 100t104 41q57 0 185 -57q12 -4 53 -23.5t133 -66.5q76 -35 76 -113q0 -59 -37 -103q-39 -39 -103 -38q-61 0 -237 81l-135 66q-76 35 -76 113z" />
<glyph unicode="&#xfa;" horiz-adv-x="1101" d="M43 381l2 526q0 68 43 117t113 49q90 0 133 -74q33 -66 33 -178l-9 -166l-6 -135q0 -123 33 -186q41 -76 143 -76t144 80q29 57 28 176l-6 156l-6 157q0 143 47 199q37 47 117 47q63 0 110.5 -48t47.5 -118v-526q0 -203 -148 -318q-135 -100 -348 -100q-203 0 -332 105 q-139 115 -139 313zM297 1319q0 74 74 111l188 90q133 57 193 57q57 0 95 -41t38 -100q0 -39 -17.5 -64.5t-56.5 -48.5l-188 -90q-134 -57 -193 -57q-57 0 -95 40.5t-38 102.5z" />
<glyph unicode="&#xfb;" horiz-adv-x="1114" d="M51 381l2 526q0 68 43 117t113 49q90 0 133 -74q33 -66 33 -178l-8 -166l-7 -135q0 -123 33 -186q41 -76 144 -76q102 0 143 80q29 57 29 176l-7 156l-6 157q0 143 47 199q37 47 117 47q63 0 110.5 -48t47.5 -118v-526q0 -203 -148 -318q-135 -100 -348 -100 q-203 0 -332 105q-139 115 -139 313zM129 1309q0 76 59 123q12 12 224 100l59 27q43 18 64 18q16 0 26 -2t37 -14l64 -29l180 -76q98 -55 98 -158q0 -43 -31.5 -81.5t-77.5 -38.5q-59 0 -188 61l-106 53l-148 -71q-47 -20 -85.5 -32.5t-65.5 -12.5q-43 0 -78 41 q-31 43 -31 92z" />
<glyph unicode="&#xfc;" horiz-adv-x="1118" d="M55 381l2 526q0 68 43 117t113 49q94 0 133 -72q31 -59 31 -180l-6 -147l-6 -152q0 -125 30 -186q41 -78 144 -78q100 0 143 80q31 61 31 176v41v37q-4 27 -4 39l-11 196q0 143 47 199q41 47 119 47q63 0 110.5 -48t47.5 -118v-526q0 -203 -148 -318q-135 -100 -348 -100 q-203 0 -331 105q-139 115 -140 313zM150 1378q0 68 46 114t111 46q66 0 113 -47t47 -113q0 -63 -44 -110t-112 -47t-114.5 44t-46.5 113zM610 1376q0 68 46 114t112 46t113 -47t47 -113t-46 -111.5t-112 -45.5q-68 0 -115 45q-23 23 -34 50t-11 62z" />
<glyph unicode="&#xfd;" horiz-adv-x="1103" d="M16 924q0 61 44 105t112 44q145 0 262 -338q18 -61 34.5 -116.5t43.5 -129.5l166 420q90 164 174 164q72 0 117 -45t45 -117q0 -63 -113 -338q-80 -195 -221 -512l-160 -356q-31 -72 -61 -106q-41 -45 -111 -45q-63 0 -111.5 43t-48.5 108q0 70 86 252l70 143l-184 426 q-143 342 -144 398zM285 1317q0 74 75 110l189 91q133 57 190 57t95 -41t38 -100q0 -39 -17 -65t-56 -48l-189 -90q-133 -57 -192 -57q-57 0 -95 40.5t-38 102.5z" />
<glyph unicode="&#xfe;" horiz-adv-x="1167" d="M31 -287v1661q0 76 42 118t117 42q96 0 140 -86q31 -66 30 -195l-6 -137l-6 -106q109 84 250 84q213 0 354 -179q129 -166 129 -387t-127 -385q-139 -178 -356 -178q-74 0 -135 19q-27 8 -57.5 24.5t-59.5 40.5l2 -74l10 -155q0 -123 -30 -185q-41 -82 -140 -81 q-68 0 -112.5 43t-44.5 116zM348 530q0 -104 49 -178q57 -82 160 -82q98 0 158 80q49 72 49 178q0 102 -49 177q-57 82 -160 81q-100 0 -156 -75q-23 -35 -37 -81t-14 -100z" />
<glyph unicode="&#xff;" horiz-adv-x="1112" d="M25 924q0 61 44 105t111 44q145 0 262 -338q18 -61 35 -116.5t43 -129.5l166 420q90 164 174 164q72 0 117 -45t45 -117q0 -63 -113 -338q-80 -195 -221 -512l-160 -356q-31 -72 -61 -106q-41 -45 -111 -45q-63 0 -111 43t-48 108q0 70 86 252l69 143l-184 426 q-143 342 -143 398zM135 1376q0 68 46 114t112 46t113 -47t47 -113t-46.5 -111.5t-111.5 -45.5q-68 0 -115 45q-23 23 -34 50t-11 62zM594 1374q0 68 46 114t112 46t112.5 -47t46.5 -113t-46 -111.5t-111 -45.5q-68 0 -115 45q-23 23 -34 50t-11 62z" />
<glyph unicode="&#x152;" horiz-adv-x="1976" d="M35 707q0 330 182 532q193 211 516 211q125 0 186.5 -19.5t178.5 -93.5q12 41 51 61.5t80 20.5h491q76 0 119 -41q47 -37 47 -112q0 -90 -84 -133q-66 -31 -186 -31l-115 2l-106 8v-248l63 2l141 8q121 0 179 -28q80 -37 80 -133q0 -90 -80 -131q-61 -31 -179 -31l-94 2 l-110 6v-258l69 2l158 10q63 0 108.5 -6t77.5 -22q84 -37 84 -135q0 -70 -45 -112t-118 -42h-478q-57 0 -98 20q-41 16 -59 68q-63 -57 -163 -89t-198 -32q-326 0 -512 208t-186 536zM387 707q0 -186 76 -301q90 -135 266 -136q172 0 260 140q74 117 74 299q0 190 -68 301 q-84 135 -264 135q-178 0 -268 -133q-76 -117 -76 -305z" />
<glyph unicode="&#x153;" horiz-adv-x="1916" d="M43 530q0 233 145.5 397.5t380.5 164.5q221 0 392 -138q152 139 360 140q213 0 358.5 -156t145.5 -375q0 -72 -39 -108q-37 -31 -115 -31h-577q0 -86 94 -131q76 -35 174 -35q55 0 133 31q160 68 182 67q55 0 94 -42t39 -95q0 -121 -190 -199q-78 -29 -149.5 -43 t-151.5 -14q-102 0 -204.5 36t-174.5 107q-68 -70 -166 -106.5t-207 -36.5q-233 0 -378.5 166t-145.5 401zM360 528q0 -102 52.5 -181t154.5 -79q96 0 158 82q51 78 51 178q0 102 -49 177q-57 82 -160 81q-100 0 -155 -75q-52 -79 -52 -183zM1094 645h415q0 74 -65.5 127 t-143.5 53q-76 0 -137 -53q-61 -49 -69 -127z" />
<glyph unicode="&#x178;" horiz-adv-x="1251" d="M16 1282q0 66 51.5 108t122.5 42q115 0 289 -267l113 -180l162 254q135 190 235 191q68 0 121 -41q53 -37 53 -105q0 -55 -98 -209q-53 -82 -193 -262l-118 -151v-504q0 -78 -42 -126t-120 -48q-72 0 -121 49q-45 51 -45 127v502l-287 378q-123 178 -123 242zM203 1706 q0 68 46 114t111 46q66 0 113 -47t47 -113q0 -63 -44 -110.5t-111 -47.5q-68 0 -115 44t-47 114zM664 1704q0 68 46 114t111 46q66 0 113 -47t47 -113t-46 -112t-112 -46q-68 0 -114 45q-23 23 -34 50.5t-11 62.5z" />
<glyph unicode="&#x2c6;" horiz-adv-x="950" d="M49 1307q0 68 62 120l221 103l59 26q43 18 64 19q16 0 26.5 -2t36.5 -14q16 -4 26.5 -9.5t35.5 -19.5l180 -76q100 -59 100 -158q0 -43 -31.5 -81.5t-76.5 -38.5q-59 0 -189 61l-106 53l-148 -71q-47 -20 -85.5 -32.5t-65.5 -12.5q-43 0 -78 40q-31 43 -31 93z" />
<glyph unicode="&#x2dc;" horiz-adv-x="1015" d="M61 1311q0 86 68 150.5t152 64.5q29 0 59.5 -6.5t71.5 -22.5q174 -66 211 -65q31 0 65 28q78 61 107 66q53 0 90 -37q10 -12 21.5 -34.5t11.5 -59.5q0 -90 -62.5 -155.5t-157.5 -65.5q-29 0 -59.5 6t-71.5 22q-84 33 -136 49.5t-75 16.5q-33 0 -67 -29q-74 -61 -107 -65 q-55 0 -88 40.5t-33 96.5z" />
<glyph unicode="&#x2000;" horiz-adv-x="953" />
<glyph unicode="&#x2001;" horiz-adv-x="1907" />
<glyph unicode="&#x2002;" horiz-adv-x="953" />
<glyph unicode="&#x2003;" horiz-adv-x="1907" />
<glyph unicode="&#x2004;" horiz-adv-x="635" />
<glyph unicode="&#x2005;" horiz-adv-x="476" />
<glyph unicode="&#x2006;" horiz-adv-x="317" />
<glyph unicode="&#x2007;" horiz-adv-x="317" />
<glyph unicode="&#x2008;" horiz-adv-x="238" />
<glyph unicode="&#x2009;" horiz-adv-x="381" />
<glyph unicode="&#x200a;" horiz-adv-x="105" />
<glyph unicode="&#x2010;" horiz-adv-x="907" d="M68 561q0 55 36.5 92t96.5 37h467q61 0 98 -37t37 -98t-37 -98t-98 -37h-465q-135 0 -135 141z" />
<glyph unicode="&#x2011;" horiz-adv-x="907" d="M68 561q0 55 36.5 92t96.5 37h467q61 0 98 -37t37 -98t-37 -98t-98 -37h-465q-135 0 -135 141z" />
<glyph unicode="&#x2012;" horiz-adv-x="907" d="M68 561q0 55 36.5 92t96.5 37h467q61 0 98 -37t37 -98t-37 -98t-98 -37h-465q-135 0 -135 141z" />
<glyph unicode="&#x2013;" horiz-adv-x="1169" d="M68 555q0 135 133 135h729q61 0 98 -37t37 -98t-37 -98t-98 -37l-727 -2q-61 0 -98 37t-37 100z" />
<glyph unicode="&#x2014;" horiz-adv-x="2420" d="M68 555q0 53 36 96q39 39 97 39h1980q55 0 95 -39t40 -96q0 -59 -37.5 -97t-97.5 -38l-1982 -2q-55 0 -93 38t-38 99z" />
<glyph unicode="&#x2018;" horiz-adv-x="630" d="M49 948l6 45l25 51l162 291q25 43 61 68q10 8 27 14q26 13 55 13q63 0 109.5 -38t46.5 -100l-6 -45l-25 -53l-162 -291q-23 -39 -61 -72q-35 -25 -82 -24q-61 0 -111 37q-45 39 -45 104z" />
<glyph unicode="&#x2019;" horiz-adv-x="630" d="M49 948l6 45l25 51l162 291q25 43 59 70q12 8 27 14q29 12 57 13q61 0 108.5 -38t47.5 -102l-6 -45l-25 -53l-162 -291q-23 -41 -60.5 -67.5t-82.5 -26.5q-63 0 -109.5 38t-46.5 101z" />
<glyph unicode="&#x201a;" horiz-adv-x="630" d="M49 -166l6 45l25 53l162 291q25 43 61 68q10 8 27 14q26 12 55 12q66 0 111 -35.5t45 -103.5l-6 -47l-25 -49l-162 -291q-23 -41 -60.5 -68.5t-82.5 -27.5q-63 0 -109.5 39t-46.5 100z" />
<glyph unicode="&#x201c;" horiz-adv-x="1071" d="M49 948l6 45l25 51l162 291q25 43 61 68q10 8 27 14q26 13 55 13q63 0 109.5 -38t46.5 -100l-6 -45l-25 -53l-162 -291q-23 -39 -61 -72q-35 -25 -82 -24q-61 0 -111 37q-45 39 -45 104zM487 950l7 45l24 52l164 290q25 43 61 68q10 8 27 14q26 13 55 13q63 0 109.5 -38 t46.5 -100l-6 -45l-25 -53l-162 -291q-23 -41 -60.5 -67.5t-82.5 -26.5q-63 0 -110.5 38t-47.5 101z" />
<glyph unicode="&#x201d;" horiz-adv-x="1071" d="M49 948l6 45l25 51l162 291q25 43 59 70q12 8 27 14q29 12 57 13q61 0 108.5 -38t47.5 -102l-6 -45l-25 -53l-162 -291q-23 -41 -60.5 -67.5t-82.5 -26.5q-63 0 -109.5 38t-46.5 101zM487 946l7 45l24 51l164 291q25 43 59 70q10 8 27 14q27 12 55 13q63 0 110.5 -38 t47.5 -102l-6 -45l-25 -53l-162 -291q-23 -41 -60.5 -67.5t-84.5 -26.5q-61 0 -111 37q-45 39 -45 102z" />
<glyph unicode="&#x201e;" horiz-adv-x="1071" d="M49 -166l6 45l25 53l162 291q25 43 61 68q10 8 27 14q26 12 55 12q66 0 111 -35.5t45 -103.5l-6 -47l-25 -49l-162 -291q-23 -41 -60.5 -68.5t-82.5 -27.5q-63 0 -109.5 39t-46.5 100zM487 -166l7 45l24 53l164 291q25 43 61 68q10 8 27 14q26 12 55 12q63 0 109.5 -37.5 t46.5 -101.5l-6 -47l-25 -49l-162 -291q-23 -41 -60.5 -68.5t-82.5 -27.5q-63 0 -110.5 38t-47.5 101z" />
<glyph unicode="&#x2022;" horiz-adv-x="858" d="M51 709q0 147 104.5 251.5t254.5 104.5q147 0 251.5 -103.5t104.5 -252.5q0 -143 -105.5 -251t-250.5 -108t-252 104.5t-107 254.5z" />
<glyph unicode="&#x2026;" horiz-adv-x="1837" d="M61 141q0 70 53.5 123t125.5 53t122 -53q53 -49 54 -123q0 -74 -54.5 -125t-130.5 -51q-68 0 -120 51q-49 53 -50 125zM721 141q0 72 52 124t124 52t125 -50t53 -126q0 -74 -54 -125t-130 -51q-68 0 -121 51q-49 53 -49 125zM1382 141q0 72 52.5 124t124.5 52t125 -50 t53 -126q0 -74 -54.5 -125t-130.5 -51q-68 0 -120 51q-49 53 -50 125z" />
<glyph unicode="&#x202f;" horiz-adv-x="381" />
<glyph unicode="&#x2039;" horiz-adv-x="604" d="M53 555q0 74 49 135q16 23 199 152q12 10 20.5 14t32 15.5t49.5 11.5q45 0 75 -32t30 -75q0 -84 -117 -158l-108 -63l143 -86q84 -61 84 -135q0 -41 -29.5 -75t-74.5 -34q-31 0 -68 19l-39 24l-162 115q-84 74 -84 172z" />
<glyph unicode="&#x203a;" horiz-adv-x="604" d="M53 774q0 47 29 78t76 31q31 0 67 -19l39 -24l162 -115q84 -74 84 -170q0 -76 -49 -137q-18 -20 -199 -150l-53 -32q-14 -6 -49 -11q-45 0 -75 32t-30 75q0 86 117 160l109 63l-144 86q-84 61 -84 133z" />
<glyph unicode="&#x205f;" horiz-adv-x="476" />
<glyph unicode="&#x2122;" horiz-adv-x="1972" d="M51 1325q0 43 29 68.5t74 25.5l489 -2q39 0 68.5 -24.5t29.5 -67.5q0 -55 -45 -80q-33 -16 -98 -16h-41l-37 2v-524q0 -57 -32 -95.5t-91 -38.5q-53 0 -90 37q-33 39 -33 97v524l-86 -2q-63 0 -94 16q-43 23 -43 80zM858 709l2 540q0 78 43 131.5t123 53.5 q168 0 266 -256l78 -226l105 301q86 180 233 181q78 0 123 -51.5t45 -133.5v-540q0 -55 -33 -94.5t-92 -39.5q-72 0 -106 68q-29 70 -29 180q0 47 1 66.5t9 95.5l4 72l-86 -269q-84 -213 -176 -213t-172 207l-86 275l4 -105l6 -106q0 -117 -24 -182q-35 -86 -117 -86 q-55 0 -90 34q-31 37 -31 97z" />
<glyph unicode="&#x25fc;" horiz-adv-x="1075" d="M0 0v1075h1075v-1075h-1075z" />
</font>
</defs>
</svg>
